<?xml version="1.0" encoding="UTF-8" standalone="no"?>
<!-- Created with Inkscape (http://www.inkscape.org/) -->

<svg
   xmlns:dc="http://purl.org/dc/elements/1.1/"
   xmlns:cc="http://creativecommons.org/ns#"
   xmlns:rdf="http://www.w3.org/1999/02/22-rdf-syntax-ns#"
   xmlns:svg="http://www.w3.org/2000/svg"
   xmlns="http://www.w3.org/2000/svg"
   xmlns:sodipodi="http://sodipodi.sourceforge.net/DTD/sodipodi-0.dtd"
   xmlns:inkscape="http://www.inkscape.org/namespaces/inkscape"
   id="svg2"
   version="1.1"
   inkscape:version="0.48.4 r9939"
   width="591"
   height="199"
   sodipodi:docname="keyboard-layout-src.svg"
   inkscape:export-filename="/home/ondra/prog/tonnetz-visualizer/web/images/keyboard-layout.png"
   inkscape:export-xdpi="90"
   inkscape:export-ydpi="90"
   inkscape:label="Layer">
  <metadata
     id="metadata8">
    <rdf:RDF>
      <cc:Work
         rdf:about="">
        <dc:format>image/svg+xml</dc:format>
        <dc:type
           rdf:resource="http://purl.org/dc/dcmitype/StillImage" />
        <dc:title></dc:title>
      </cc:Work>
    </rdf:RDF>
  </metadata>
  <defs
     id="defs6" />
  <sodipodi:namedview
     pagecolor="#ffffff"
     bordercolor="#666666"
     borderopacity="1"
     objecttolerance="10"
     gridtolerance="10"
     guidetolerance="10"
     inkscape:pageopacity="0"
     inkscape:pageshadow="2"
     inkscape:window-width="1366"
     inkscape:window-height="716"
     id="namedview4"
     showgrid="false"
     inkscape:zoom="1.4142136"
     inkscape:cx="260.85125"
     inkscape:cy="78.177259"
     inkscape:window-x="0"
     inkscape:window-y="632"
     inkscape:window-maximized="1"
     inkscape:current-layer="svg2"
     fit-margin-top="0"
     fit-margin-left="0"
     fit-margin-right="0"
     fit-margin-bottom="0" />
  <path
     inkscape:connector-curvature="0"
     id="path4549"
     d="m 545.22379,23.240699 30.8365,53.523811"
     style="fill:none;stroke:#000000;stroke-width:1.04825926px;stroke-linecap:butt;stroke-linejoin:miter;stroke-opacity:1"
     sodipodi:nodetypes="cc" />
  <path
     inkscape:connector-curvature="0"
     id="path4577"
     d="M 577.02333,72.532575 548.30062,123.49222"
     style="fill:none;stroke:#000000;stroke-width:1.04825926px;stroke-linecap:butt;stroke-linejoin:miter;stroke-opacity:1" />
  <path
     inkscape:connector-curvature="0"
     id="path4545"
     d="m 427.29463,23.240699 43.82529,76.068849 10.95633,19.017212"
     style="fill:none;stroke:#000000;stroke-width:1.04825926px;stroke-linecap:butt;stroke-linejoin:miter;stroke-opacity:1"
     sodipodi:nodetypes="ccc" />
  <path
     sodipodi:nodetypes="ccc"
     style="fill:none;stroke:#000000;stroke-width:1.04825926px;stroke-linecap:butt;stroke-linejoin:miter;stroke-opacity:1"
     d="m 486.52127,23.240699 43.8253,76.068849 10.95632,19.017212"
     id="path4547"
     inkscape:connector-curvature="0" />
  <path
     style="fill:none;stroke:#000000;stroke-width:1.04825926px;stroke-linecap:butt;stroke-linejoin:miter;stroke-opacity:1"
     d="m 16.652534,24.537854 529.489156,0"
     id="path4551"
     inkscape:connector-curvature="0" />
  <path
     style="fill:none;stroke:#000000;stroke-width:1.04825926px;stroke-linecap:butt;stroke-linejoin:miter;stroke-opacity:1"
     d="m 75.361909,126.56176 473.259431,0"
     id="path4555"
     inkscape:connector-curvature="0"
     sodipodi:nodetypes="cc" />
  <path
     inkscape:connector-curvature="0"
     id="path4557"
     d="m 104.12352,177.33682 359.58882,0"
     style="fill:none;stroke:#000000;stroke-width:1.04825926px;stroke-linecap:butt;stroke-linejoin:miter;stroke-opacity:1"
     sodipodi:nodetypes="cc" />
  <path
     inkscape:connector-curvature="0"
     id="path4553"
     d="m 44.693468,75.509458 529.489152,0"
     style="fill:none;stroke:#000000;stroke-width:1.04825926px;stroke-linecap:butt;stroke-linejoin:miter;stroke-opacity:1" />
  <path
     style="fill:none;stroke:#000000;stroke-width:1.04825926px;stroke-linecap:butt;stroke-linejoin:miter;stroke-opacity:1"
     d="M 74.468568,25.464393 45.74586,76.424038"
     id="path4559"
     inkscape:connector-curvature="0" />
  <path
     style="fill:none;stroke:#000000;stroke-width:1.04825926px;stroke-linecap:butt;stroke-linejoin:miter;stroke-opacity:1"
     d="M 135.08307,22.84539 76.642619,125.83686"
     id="path4561"
     inkscape:connector-curvature="0" />
  <path
     style="fill:none;stroke:#000000;stroke-width:1.04825926px;stroke-linecap:butt;stroke-linejoin:miter;stroke-opacity:1"
     d="M 16.281919,23.240699 103.93252,175.37841"
     id="path4531"
     inkscape:connector-curvature="0" />
  <path
     inkscape:connector-curvature="0"
     id="path4533"
     d="M 75.2098,23.240699 162.8604,175.37841"
     style="fill:none;stroke:#000000;stroke-width:1.04825926px;stroke-linecap:butt;stroke-linejoin:miter;stroke-opacity:1" />
  <path
     inkscape:connector-curvature="0"
     id="path4535"
     d="m 133.39645,23.240699 87.6506,152.137711"
     style="fill:none;stroke:#000000;stroke-width:1.04825926px;stroke-linecap:butt;stroke-linejoin:miter;stroke-opacity:1" />
  <path
     style="fill:none;stroke:#000000;stroke-width:1.04825926px;stroke-linecap:butt;stroke-linejoin:miter;stroke-opacity:1"
     d="M 192.32434,23.240699 279.97493,175.37841"
     id="path4537"
     inkscape:connector-curvature="0" />
  <path
     inkscape:connector-curvature="0"
     id="path4539"
     d="m 251.25221,23.240699 87.6506,152.137711"
     style="fill:none;stroke:#000000;stroke-width:1.04825926px;stroke-linecap:butt;stroke-linejoin:miter;stroke-opacity:1" />
  <path
     style="fill:none;stroke:#000000;stroke-width:1.04825926px;stroke-linecap:butt;stroke-linejoin:miter;stroke-opacity:1"
     d="m 310.18009,23.240699 87.6506,152.137711"
     id="path4541"
     inkscape:connector-curvature="0" />
  <path
     style="fill:none;stroke:#000000;stroke-width:1.04825926px;stroke-linecap:butt;stroke-linejoin:miter;stroke-opacity:1"
     d="M 368.36675,23.240699 456.01734,175.37841"
     id="path4543"
     inkscape:connector-curvature="0" />
  <path
     style="fill:none;stroke:#000000;stroke-width:1.04825926px;stroke-linecap:butt;stroke-linejoin:miter;stroke-opacity:1"
     d="M 193.25087,23.981931 105.41498,176.67556"
     id="path4563"
     inkscape:connector-curvature="0" />
  <path
     inkscape:connector-curvature="0"
     id="path4565"
     d="M 252.54936,23.981931 164.71347,176.67556"
     style="fill:none;stroke:#000000;stroke-width:1.04825926px;stroke-linecap:butt;stroke-linejoin:miter;stroke-opacity:1" />
  <path
     style="fill:none;stroke:#000000;stroke-width:1.04825926px;stroke-linecap:butt;stroke-linejoin:miter;stroke-opacity:1"
     d="M 311.10663,23.981931 223.27074,176.67556"
     id="path4567"
     inkscape:connector-curvature="0" />
  <path
     inkscape:connector-curvature="0"
     id="path4569"
     d="M 370.03452,23.981931 282.19862,176.67556"
     style="fill:none;stroke:#000000;stroke-width:1.04825926px;stroke-linecap:butt;stroke-linejoin:miter;stroke-opacity:1" />
  <path
     style="fill:none;stroke:#000000;stroke-width:1.04825926px;stroke-linecap:butt;stroke-linejoin:miter;stroke-opacity:1"
     d="M 428.59179,23.981931 340.75589,176.67556"
     id="path4571"
     inkscape:connector-curvature="0" />
  <path
     inkscape:connector-curvature="0"
     id="path4573"
     d="M 487.51967,23.981931 399.68377,176.67556"
     style="fill:none;stroke:#000000;stroke-width:1.04825926px;stroke-linecap:butt;stroke-linejoin:miter;stroke-opacity:1" />
  <path
     style="fill:none;stroke:#000000;stroke-width:1.04825926px;stroke-linecap:butt;stroke-linejoin:miter;stroke-opacity:1"
     d="M 546.07694,23.981931 458.24104,176.67556"
     id="path4575"
     inkscape:connector-curvature="0" />
  <path
     transform="matrix(1.0482592,0,0,1.0482592,426.83133,144.72665)"
     style="fill:#ffffff;fill-opacity:1;stroke:#000000;stroke-opacity:1"
     d="m 41.012193,31.273558 c 0,6.248388 -5.06532,11.313708 -11.313709,11.313708 -6.248388,0 -11.313708,-5.06532 -11.313708,-11.313708 0,-6.248389 5.06532,-11.313709 11.313708,-11.313709 6.248389,0 11.313709,5.06532 11.313709,11.313709 z"
     id="path4515" />
  <path
     transform="matrix(1.0482592,0,0,1.0482592,514.97606,93.767004)"
     style="fill:#ffffff;fill-opacity:1;stroke:#000000;stroke-opacity:1"
     d="m 41.012193,31.273558 c 0,6.248388 -5.06532,11.313708 -11.313709,11.313708 -6.248388,0 -11.313708,-5.06532 -11.313708,-11.313708 0,-6.248389 5.06532,-11.313709 11.313708,-11.313709 6.248389,0 11.313709,5.06532 11.313709,11.313709 z"
     id="path4497" />
  <path
     transform="matrix(1.0482592,0,0,1.0482592,544.5018,42.807359)"
     style="fill:#ffffff;fill-opacity:1;stroke:#000000;stroke-opacity:1"
     d="m 41.012193,31.273558 c 0,6.248388 -5.06532,11.313708 -11.313709,11.313708 -6.248388,0 -11.313708,-5.06532 -11.313708,-11.313708 0,-6.248389 5.06532,-11.313709 11.313708,-11.313709 6.248389,0 11.313709,5.06532 11.313709,11.313709 z"
     id="path4455" />
  <path
     transform="matrix(1.0482592,0,0,1.0482592,514.85256,-8.3375938)"
     style="fill:#ffffff;fill-opacity:1;stroke:#000000;stroke-opacity:1"
     d="m 41.012193,31.273558 c 0,6.248388 -5.06532,11.313708 -11.313709,11.313708 -6.248388,0 -11.313708,-5.06532 -11.313708,-11.313708 0,-6.248389 5.06532,-11.313709 11.313708,-11.313709 6.248389,0 11.313709,5.06532 11.313709,11.313709 z"
     id="path4453" />
  <g
     style="font-size:23.06170273px;font-style:normal;font-variant:normal;font-weight:normal;font-stretch:normal;line-height:125%;letter-spacing:0px;word-spacing:0px;fill:#000000;fill-opacity:1;stroke:none;font-family:Fantasque Sans Mono;-inkscape-font-specification:Fantasque Sans Mono"
     id="text2987">
    <path
       d="m 543.43387,26.525894 4.38038,-5.607777 c -0.10511,-0.352821 -0.2027,-0.634336 -0.29278,-0.844545 -0.0901,-0.217693 -0.21396,-0.450412 -0.3716,-0.698157 -0.15015,-0.247721 -0.33782,-0.431644 -0.56303,-0.551769 -0.22522,-0.120101 -0.48421,-0.180157 -0.77698,-0.18017 -1.67408,1.3e-5 -2.51112,2.090728 -2.51111,6.272153 -1e-5,0.533007 0.045,1.069762 0.13512,1.610265 m 4.79702,-4.087597 -4.41416,5.641559 c 0.17266,0.630597 0.40914,1.126062 0.70942,1.486399 0.30028,0.360341 0.73569,0.54051 1.30623,0.540509 0.3228,1e-6 0.61182,-0.07132 0.86707,-0.213952 0.25523,-0.150139 0.46918,-0.334062 0.64185,-0.551769 0.17266,-0.225209 0.31904,-0.514231 0.43916,-0.867066 0.12011,-0.352828 0.21395,-0.694399 0.28152,-1.024714 0.0676,-0.330306 0.1201,-0.71692 0.15765,-1.159842 0.0375,-0.450418 0.06,-0.837031 0.0676,-1.159841 0.007,-0.330304 0.0113,-0.705657 0.0113,-1.12606 -10e-6,-0.578036 -0.0225,-1.099776 -0.0676,-1.565223 m -2.43229,-5.517692 c 0.65311,1.4e-5 1.2349,0.150156 1.74539,0.450424 0.51047,0.292789 0.91961,0.675649 1.22741,1.14858 0.30778,0.465451 0.55926,1.02848 0.75446,1.68909 0.19517,0.653125 0.3303,1.302486 0.40538,1.948083 0.0751,0.645617 0.11259,1.332512 0.1126,2.06069 -1e-5,5.074778 -1.40382,7.612163 -4.21146,7.612163 -0.65312,0 -1.23492,-0.138881 -1.74539,-0.416642 -0.50298,-0.277761 -0.91211,-0.641853 -1.22741,-1.092278 -0.30779,-0.457929 -0.56303,-1.002191 -0.76572,-1.632786 -0.20269,-0.63059 -0.34532,-1.26869 -0.4279,-1.914302 -0.0751,-0.645602 -0.11261,-1.332498 -0.11261,-2.060689 0,-0.51798 0.0188,-1.020953 0.0563,-1.50892 0.0375,-0.495458 0.10134,-1.005937 0.19143,-1.531441 0.0901,-0.525484 0.20644,-1.013443 0.34908,-1.463878 0.14263,-0.457919 0.3228,-0.889575 0.5405,-1.294969 0.22521,-0.412875 0.48045,-0.761953 0.76573,-1.047235 0.29277,-0.292762 0.63809,-0.521727 1.03597,-0.686897 0.39787,-0.172647 0.83328,-0.258979 1.30623,-0.258993"
       style="text-align:center;line-height:125%;text-anchor:middle;font-family:Fantasque Sans Mono;-inkscape-font-specification:Fantasque Sans Mono"
       id="path3137" />
  </g>
  <path
     transform="matrix(1.0482592,0,0,1.0482592,456.04818,-8.3375938)"
     style="fill:#ffffff;fill-opacity:1;stroke:#000000;stroke-opacity:1"
     d="m 41.012193,31.273558 c 0,6.248388 -5.06532,11.313708 -11.313709,11.313708 -6.248388,0 -11.313708,-5.06532 -11.313708,-11.313708 0,-6.248389 5.06532,-11.313709 11.313708,-11.313709 6.248389,0 11.313709,5.06532 11.313709,11.313709 z"
     id="path3649" />
  <g
     style="font-size:23.06170273px;font-style:normal;font-variant:normal;font-weight:normal;font-stretch:normal;line-height:125%;letter-spacing:0px;word-spacing:0px;fill:#000000;fill-opacity:1;stroke:none;font-family:Fantasque Sans Mono;-inkscape-font-specification:Fantasque Sans Mono"
     id="text3472">
    <path
       d="m 487.11354,18.677258 c -0.80327,1.3e-5 -1.47139,0.187689 -2.00439,0.56303 -0.53301,0.375365 -0.79951,0.938394 -0.7995,1.689089 -10e-6,0.683153 0.26649,1.20114 0.7995,1.553963 0.533,0.345333 1.17485,0.517996 1.92556,0.517987 0.66062,9e-6 1.2274,-0.187668 1.70035,-0.56303 0.48045,-0.375343 0.78448,-0.788232 0.91211,-1.238665 -0.0751,-0.645597 -0.35659,-1.227394 -0.84454,-1.745393 -0.48797,-0.517975 -1.051,-0.776968 -1.68909,-0.776981 m -4.59433,2.218337 c 0,-1.193611 0.40163,-2.143254 1.20489,-2.848931 0.80325,-0.705649 1.83922,-1.058481 3.10792,-1.058496 0.60056,1.5e-5 1.13731,0.07884 1.61027,0.236473 0.48044,0.150155 0.88582,0.352846 1.21614,0.608072 0.3303,0.247747 0.61557,0.566797 0.85581,0.957151 0.24772,0.382873 0.4429,0.776993 0.58555,1.182362 0.14262,0.397886 0.25523,0.863324 0.33781,1.396314 0.0826,0.525505 0.13512,1.020971 0.15765,1.486399 0.03,0.45794 0.045,0.972173 0.0451,1.542702 -1e-5,0.788248 -0.0376,1.512679 -0.11261,2.173295 -0.0751,0.653119 -0.21772,1.306233 -0.4279,1.959344 -0.21021,0.64561 -0.48797,1.193625 -0.83329,1.644047 -0.33782,0.442918 -0.792,0.803257 -1.36253,1.081018 -0.56304,0.277761 -1.22366,0.416642 -1.98186,0.416642 -1.32125,0 -2.34972,-0.292775 -3.08541,-0.878327 -0.72819,-0.593056 -1.28371,-1.486396 -1.66657,-2.680022 l 1.72287,-0.506727 c 0.14264,0.450428 0.27776,0.803259 0.40539,1.058496 0.12761,0.255243 0.30028,0.487962 0.51798,0.698157 0.22521,0.2102 0.50297,0.356588 0.83329,0.439164 0.33781,0.07507 0.76196,0.112607 1.27245,0.112606 0.40537,10e-7 0.76571,-0.06381 1.08101,-0.191431 0.31529,-0.127618 0.57804,-0.31154 0.78824,-0.551769 0.2177,-0.240223 0.39787,-0.510477 0.54051,-0.810763 0.15014,-0.307786 0.26274,-0.660618 0.33782,-1.058496 0.0751,-0.39787 0.12761,-0.788237 0.15765,-1.171102 0.0375,-0.390361 0.0563,-0.81451 0.0563,-1.272447 -1e-5,-0.01501 -0.0113,-0.416635 -0.0338,-1.204884 -0.36785,0.367853 -0.78074,0.638108 -1.23867,0.810763 -0.45043,0.165162 -1.02847,0.24774 -1.73413,0.247733 -1.2687,7e-6 -2.31218,-0.330304 -3.13044,-0.990933 -0.81827,-0.66812 -1.22741,-1.610256 -1.22741,-2.82641"
       style="text-align:center;line-height:125%;text-anchor:middle;font-family:Fantasque Sans Mono;-inkscape-font-specification:Fantasque Sans Mono"
       id="path3141" />
  </g>
  <path
     transform="matrix(1.0482592,0,0,1.0482592,397.24384,-8.3375938)"
     style="fill:#ffffff;fill-opacity:1;stroke:#000000;stroke-opacity:1"
     d="m 41.012193,31.273558 c 0,6.248388 -5.06532,11.313708 -11.313709,11.313708 -6.248388,0 -11.313708,-5.06532 -11.313708,-11.313708 0,-6.248389 5.06532,-11.313709 11.313708,-11.313709 6.248389,0 11.313709,5.06532 11.313709,11.313709 z"
     id="path4437" />
  <g
     style="font-size:23.06170273px;font-style:normal;font-variant:normal;font-weight:normal;font-stretch:normal;line-height:125%;letter-spacing:0px;word-spacing:0px;fill:#000000;fill-opacity:1;stroke:none;font-family:Fantasque Sans Mono;-inkscape-font-specification:Fantasque Sans Mono"
     id="text3476">
    <path
       d="m 425.9061,29.329783 c 0.52549,0.442918 1.24992,0.664376 2.17329,0.664375 0.92337,1e-6 1.6478,-0.221457 2.1733,-0.664375 0.52548,-0.450422 0.78823,-1.058493 0.78824,-1.824217 -10e-6,-0.405377 -0.0788,-0.776976 -0.23647,-1.114799 -0.15766,-0.34532 -0.39038,-0.649355 -0.69816,-0.912109 -0.3078,-0.26274 -0.61559,-0.484199 -0.92337,-0.664375 -0.30029,-0.180162 -0.66813,-0.367839 -1.10354,-0.56303 -0.43541,0.195191 -0.80701,0.382868 -1.1148,0.56303 -0.30028,0.180176 -0.60432,0.401635 -0.9121,0.664375 -0.3078,0.262754 -0.54052,0.566789 -0.69816,0.912109 -0.15765,0.337823 -0.23648,0.709422 -0.23647,1.114799 -1e-5,0.765724 0.26274,1.373795 0.78824,1.824217 m 2.17329,-6.925268 c 0.59305,-0.150132 1.08477,-0.405371 1.47514,-0.76572 0.39036,-0.367836 0.58554,-0.743189 0.58555,-1.12606 -1e-5,-0.465426 -0.18768,-0.855793 -0.56303,-1.171102 -0.36785,-0.322791 -0.87458,-0.484193 -1.52018,-0.484206 -0.64561,1.3e-5 -1.15609,0.161415 -1.53144,0.484206 -0.36785,0.315309 -0.55177,0.705676 -0.55177,1.171102 0,0.375364 0.19893,0.746963 0.59681,1.114799 0.40538,0.367856 0.90835,0.626849 1.50892,0.776981 m -2.84893,-4.335329 c 0.68314,-0.653101 1.62528,-0.979658 2.82641,-0.979672 1.20113,1.4e-5 2.14326,0.326571 2.82641,0.979672 0.68314,0.653127 1.02471,1.482657 1.02472,2.488591 -1e-5,0.563041 -0.19144,1.111056 -0.57429,1.644048 -0.37537,0.53301 -0.82204,0.912117 -1.34002,1.13732 0.7507,0.360347 1.41132,0.893348 1.98187,1.599005 0.57053,0.70567 0.85579,1.523939 0.8558,2.45481 -1e-5,1.268697 -0.43541,2.312178 -1.30622,3.130446 -0.86332,0.81827 -2.0119,1.227405 -3.44575,1.227405 -1.43385,0 -2.58618,-0.409135 -3.457,-1.227405 -0.86331,-0.818268 -1.29497,-1.861749 -1.29497,-3.130446 0,-0.930871 0.28527,-1.74914 0.85581,-2.45481 0.57053,-0.705657 1.23115,-1.238658 1.98186,-1.599005 -0.51799,-0.232711 -0.97592,-0.61557 -1.37379,-1.148581 -0.39037,-0.532992 -0.58555,-1.077253 -0.58555,-1.632787 0,-1.005934 0.34157,-1.835464 1.02471,-2.488591"
       style="text-align:center;line-height:125%;text-anchor:middle;font-family:Fantasque Sans Mono;-inkscape-font-specification:Fantasque Sans Mono"
       id="path3145" />
  </g>
  <path
     transform="matrix(1.0482592,0,0,1.0482592,338.4395,-8.3375938)"
     style="fill:#ffffff;fill-opacity:1;stroke:#000000;stroke-opacity:1"
     d="m 41.012193,31.273558 c 0,6.248388 -5.06532,11.313708 -11.313709,11.313708 -6.248388,0 -11.313708,-5.06532 -11.313708,-11.313708 0,-6.248389 5.06532,-11.313709 11.313708,-11.313709 6.248389,0 11.313709,5.06532 11.313709,11.313709 z"
     id="path4439" />
  <g
     style="font-size:23.06170273px;font-style:normal;font-variant:normal;font-weight:normal;font-stretch:normal;line-height:125%;letter-spacing:0px;word-spacing:0px;fill:#000000;fill-opacity:1;stroke:none;font-family:Fantasque Sans Mono;-inkscape-font-specification:Fantasque Sans Mono"
     id="text3480">
    <path
       d="m 365.45306,17.100774 c 0.3228,1.5e-5 0.83703,0.01127 1.5427,0.03378 0.70566,0.02254 1.20113,0.0338 1.4864,0.03378 l 5.54021,0 0.46169,0 0.51799,0.923369 c -0.45795,0.855818 -0.97593,1.767925 -1.55397,2.736325 -0.57054,0.960914 -1.04724,1.745401 -1.43009,2.353465 -0.37536,0.600573 -0.76198,1.276208 -1.15984,2.026907 -0.39789,0.743205 -0.71318,1.41884 -0.94589,2.026908 -0.22522,0.600569 -0.4129,1.279957 -0.56303,2.038168 -0.14264,0.758215 -0.21396,1.550209 -0.21396,2.375986 l -1.85799,0 c -1e-5,-0.502973 0.03,-1.002193 0.0901,-1.49766 0.06,-0.502971 0.13137,-0.968409 0.21395,-1.396314 0.0826,-0.427899 0.2177,-0.89709 0.40538,-1.407575 0.18768,-0.517982 0.35283,-0.960899 0.49547,-1.32875 0.14263,-0.375347 0.36033,-0.837031 0.65311,-1.385053 0.29277,-0.555516 0.52925,-1.002186 0.70942,-1.340011 0.18767,-0.33781 0.47669,-0.814508 0.86707,-1.430096 0.39036,-0.623076 0.69064,-1.099774 0.90085,-1.430096 0.21019,-0.330299 0.54425,-0.844533 1.00219,-1.542702 -0.39038,0.01503 -1.13358,0.02253 -2.2296,0.02252 l -1.45262,0 c -0.33031,1.3e-5 -1.12606,-0.03002 -2.38724,-0.09008 -0.12763,0.247745 -0.28527,0.683155 -0.47295,1.306229 l -1.52018,-0.686897 c 0.0751,-0.225199 0.21771,-0.600552 0.4279,-1.126059 0.21771,-0.532988 0.37536,-0.938369 0.47295,-1.216145"
       style="text-align:center;line-height:125%;text-anchor:middle;font-family:Fantasque Sans Mono;-inkscape-font-specification:Fantasque Sans Mono"
       id="path3149" />
  </g>
  <path
     transform="matrix(1.0482592,0,0,1.0482592,279.63516,-8.3375938)"
     style="fill:#ffffff;fill-opacity:1;stroke:#000000;stroke-opacity:1"
     d="m 41.012193,31.273558 c 0,6.248388 -5.06532,11.313708 -11.313709,11.313708 -6.248388,0 -11.313708,-5.06532 -11.313708,-11.313708 0,-6.248389 5.06532,-11.313709 11.313708,-11.313709 6.248389,0 11.313709,5.06532 11.313709,11.313709 z"
     id="path4441" />
  <g
     style="font-size:23.06170273px;font-style:normal;font-variant:normal;font-weight:normal;font-stretch:normal;line-height:125%;letter-spacing:0px;word-spacing:0px;fill:#000000;fill-opacity:1;stroke:none;font-family:Fantasque Sans Mono;-inkscape-font-specification:Fantasque Sans Mono"
     id="text3484">
    <path
       d="m 312.93883,18.418264 c -2.06445,0.375366 -3.55084,1.640305 -4.45919,3.794821 -0.21021,0.517997 -0.37911,1.208646 -0.50673,2.07195 0.22521,-0.195176 0.38661,-0.32655 0.4842,-0.394121 0.0976,-0.07506 0.26275,-0.176408 0.49547,-0.304036 0.24022,-0.127612 0.50672,-0.213943 0.7995,-0.258994 0.29277,-0.05254 0.64185,-0.07882 1.04724,-0.07882 1.26118,9e-6 2.27839,0.386622 3.05162,1.159842 0.77322,0.773234 1.15983,1.805454 1.15984,3.096664 -1e-5,1.373795 -0.42416,2.413523 -1.27245,3.119185 -0.84079,0.705665 -1.95559,1.058496 -3.34439,1.058496 -1.41884,0 -2.51112,-0.506726 -3.27684,-1.52018 -0.76572,-1.013451 -1.14858,-2.323433 -1.14858,-3.929949 0,-1.674068 0.28902,-3.246796 0.86707,-4.71819 0.48045,-1.216133 1.16734,-2.237093 2.06069,-3.062882 0.89333,-0.825763 2.09446,-1.388793 3.60339,-1.68909 l 0.43916,1.655308 m -5.13483,8.693181 c 0.0976,0.93088 0.36784,1.640296 0.81076,2.128253 0.44292,0.480454 1.03597,0.72068 1.77918,0.720678 0.82577,2e-6 1.5014,-0.221456 2.02691,-0.664375 0.53299,-0.442914 0.79949,-1.039725 0.7995,-1.790435 -10e-6,-0.765716 -0.22522,-1.373787 -0.67564,-1.824217 -0.45043,-0.457924 -1.06601,-0.68689 -1.84674,-0.686896 -0.70567,6e-6 -1.34001,0.225218 -1.90304,0.675636 -0.56303,0.442922 -0.89334,0.923374 -0.99093,1.441356"
       style="text-align:center;line-height:125%;text-anchor:middle;font-family:Fantasque Sans Mono;-inkscape-font-specification:Fantasque Sans Mono"
       id="path3153" />
  </g>
  <path
     transform="matrix(1.0482592,0,0,1.0482592,220.83083,-8.3375938)"
     style="fill:#ffffff;fill-opacity:1;stroke:#000000;stroke-opacity:1"
     d="m 41.012193,31.273558 c 0,6.248388 -5.06532,11.313708 -11.313709,11.313708 -6.248388,0 -11.313708,-5.06532 -11.313708,-11.313708 0,-6.248389 5.06532,-11.313709 11.313708,-11.313709 6.248389,0 11.313709,5.06532 11.313709,11.313709 z"
     id="path4443" />
  <g
     style="font-size:23.06170273px;font-style:normal;font-variant:normal;font-weight:normal;font-stretch:normal;line-height:125%;letter-spacing:0px;word-spacing:0px;fill:#000000;fill-opacity:1;stroke:none;font-family:Fantasque Sans Mono;-inkscape-font-specification:Fantasque Sans Mono"
     id="text3488">
    <path
       d="m 251.5287,23.417969 c -0.93088,8e-6 -1.77917,0.394129 -2.54489,1.182363 -0.015,0.01502 -0.0263,0.02628 -0.0338,0.03378 l -1.41884,-0.608073 0.51799,-6.880224 6.7451,0.02252 0,1.734132 -5.15736,0 -0.25899,3.344397 c 0.68314,-0.405372 1.3888,-0.608062 2.11699,-0.608072 0.78073,1e-5 1.50516,0.161412 2.1733,0.484205 0.69064,0.367856 1.26868,0.938392 1.73413,1.711611 0.47293,0.773235 0.70941,1.689096 0.70942,2.747586 -10e-6,1.629036 -0.43542,2.882715 -1.30623,3.761039 -0.87083,0.87082 -2.0119,1.313737 -3.42322,1.328751 l -0.0225,0 c -0.90836,0 -1.70787,-0.247733 -2.39851,-0.7432 -0.68315,-0.495465 -1.24993,-1.122304 -1.70035,-1.880519 l 1.49766,-0.990933 c 0.34532,0.57054 0.72443,1.024717 1.13732,1.362532 0.42039,0.330313 0.91961,0.495468 1.49766,0.495467 0.93837,10e-7 1.6628,-0.285267 2.17329,-0.855806 0.51047,-0.570534 0.76571,-1.388803 0.76572,-2.45481 -1e-5,-1.478885 -0.48421,-2.443542 -1.45261,-2.893973 -0.4129,-0.195176 -0.86332,-0.292768 -1.35128,-0.292776"
       style="text-align:center;line-height:125%;text-anchor:middle;font-family:Fantasque Sans Mono;-inkscape-font-specification:Fantasque Sans Mono"
       id="path3157" />
  </g>
  <path
     transform="matrix(1.0482592,0,0,1.0482592,162.02649,-8.3375938)"
     style="fill:#ffffff;fill-opacity:1;stroke:#000000;stroke-opacity:1"
     d="m 41.012193,31.273558 c 0,6.248388 -5.06532,11.313708 -11.313709,11.313708 -6.248388,0 -11.313708,-5.06532 -11.313708,-11.313708 0,-6.248389 5.06532,-11.313709 11.313708,-11.313709 6.248389,0 11.313709,5.06532 11.313709,11.313709 z"
     id="path4445" />
  <g
     style="font-size:23.06170273px;font-style:normal;font-variant:normal;font-weight:normal;font-stretch:normal;line-height:125%;letter-spacing:0px;word-spacing:0px;fill:#000000;fill-opacity:1;stroke:none;font-family:Fantasque Sans Mono;-inkscape-font-specification:Fantasque Sans Mono"
     id="text3492">
    <path
       d="m 194.03728,25.230925 0,-4.729451 c -0.39038,0.690661 -0.9459,1.505177 -1.66657,2.44355 -0.72068,0.930884 -1.35878,1.69285 -1.9143,2.285901 l 3.58087,0 m -5.93434,0.304036 c 0.0225,-0.03002 0.259,-0.326551 0.70942,-0.889587 0.45793,-0.563022 0.94214,-1.178601 1.45262,-1.846738 0.51798,-0.675626 1.05474,-1.396303 1.61026,-2.162034 0.56303,-0.773216 1.03973,-1.493894 1.4301,-2.162035 0.39036,-0.675622 0.60807,-1.186102 0.65311,-1.531441 l 1.83548,0 0,8.287799 1.44136,0 0,1.734132 -1.44136,0 0,4.70693 -1.75665,0 0,-4.673148 -5.2587,0 -0.67564,-1.463878"
       style="text-align:center;line-height:125%;text-anchor:middle;font-family:Fantasque Sans Mono;-inkscape-font-specification:Fantasque Sans Mono"
       id="path3161" />
  </g>
  <path
     transform="matrix(1.0482592,0,0,1.0482592,103.22216,-8.3375938)"
     style="fill:#ffffff;fill-opacity:1;stroke:#000000;stroke-opacity:1"
     d="m 41.012193,31.273558 c 0,6.248388 -5.06532,11.313708 -11.313709,11.313708 -6.248388,0 -11.313708,-5.06532 -11.313708,-11.313708 0,-6.248389 5.06532,-11.313709 11.313708,-11.313709 6.248389,0 11.313709,5.06532 11.313709,11.313709 z"
     id="path4447" />
  <g
     style="font-size:23.06170273px;font-style:normal;font-variant:normal;font-weight:normal;font-stretch:normal;line-height:125%;letter-spacing:0px;word-spacing:0px;fill:#000000;fill-opacity:1;stroke:none;font-family:Fantasque Sans Mono;-inkscape-font-specification:Fantasque Sans Mono"
     id="text3496">
    <path
       d="m 129.26019,27.877166 1.77917,-0.01126 c 0.008,0.675639 0.24022,1.227408 0.69816,1.655308 0.45792,0.420397 1.08852,0.630595 1.89178,0.630593 0.88582,2e-6 1.58398,-0.243978 2.09447,-0.731939 0.51047,-0.487956 0.76571,-1.148577 0.76572,-1.981865 -1e-5,-0.645602 -0.11261,-1.186111 -0.33782,-1.621526 -0.22522,-0.435403 -0.60057,-0.799495 -1.12606,-1.092278 -0.3153,-0.180162 -0.65312,-0.315289 -1.01345,-0.405381 -0.36035,-0.09008 -0.65312,-0.138873 -0.87833,-0.146388 -0.21771,-0.01501 -0.5255,-0.02251 -0.92337,-0.02252 l 0,-1.779174 0.18017,0 c 0.61558,9e-6 1.21614,-0.09758 1.8017,-0.292776 0.49546,-0.172653 0.8558,-0.412878 1.08101,-0.720678 0.23272,-0.307779 0.34908,-0.735681 0.34908,-1.283708 0,-0.420384 -0.20269,-0.754448 -0.60807,-1.002193 -0.39788,-0.247721 -0.89335,-0.371587 -1.4864,-0.3716 -0.99844,1.3e-5 -1.76041,0.525507 -2.2859,1.576484 l -1.599,-0.889588 c 0.0225,-0.07506 0.0713,-0.180157 0.14638,-0.315296 0.0751,-0.142622 0.21395,-0.341559 0.41665,-0.596812 0.21019,-0.255227 0.44666,-0.487946 0.70941,-0.698157 0.27026,-0.210184 0.62684,-0.394107 1.06976,-0.551769 0.44291,-0.165141 0.91961,-0.247719 1.4301,-0.247733 l 0.12386,0 c 0.70566,1.4e-5 1.34001,0.10136 1.90304,0.304036 0.56303,0.195198 1.02846,0.529262 1.39632,1.002193 0.37534,0.472958 0.56302,1.051001 0.56303,1.734132 -1e-5,0.728196 -0.14265,1.373803 -0.42791,1.936823 -0.27777,0.555531 -0.66813,0.945898 -1.1711,1.171102 1.65905,0.803263 2.48858,2.233358 2.48859,4.290287 -1e-5,0.517991 -0.0938,1.058499 -0.28151,1.621526 -0.18018,0.563032 -0.44668,1.054744 -0.7995,1.475138 -0.78825,0.923369 -1.98187,1.385053 -3.58087,1.385054 -1.32876,-1e-6 -2.39101,-0.375353 -3.18675,-1.12606 -0.78824,-0.758212 -1.18237,-1.722869 -1.18236,-2.893973"
       style="text-align:center;line-height:125%;text-anchor:middle;font-family:Fantasque Sans Mono;-inkscape-font-specification:Fantasque Sans Mono"
       id="path3165" />
  </g>
  <path
     transform="matrix(1.0482592,0,0,1.0482592,44.417815,-8.3375938)"
     style="fill:#ffffff;fill-opacity:1;stroke:#000000;stroke-opacity:1"
     d="m 41.012193,31.273558 c 0,6.248388 -5.06532,11.313708 -11.313709,11.313708 -6.248388,0 -11.313708,-5.06532 -11.313708,-11.313708 0,-6.248389 5.06532,-11.313709 11.313708,-11.313709 6.248389,0 11.313709,5.06532 11.313709,11.313709 z"
     id="path4449" />
  <g
     style="font-size:23.06170273px;font-style:normal;font-variant:normal;font-weight:normal;font-stretch:normal;line-height:125%;letter-spacing:0px;word-spacing:0px;fill:#000000;fill-opacity:1;stroke:none;font-family:Fantasque Sans Mono;-inkscape-font-specification:Fantasque Sans Mono"
     id="text3500">
    <path
       d="m 72.928625,21.999134 -1.68909,0.405381 c -0.127622,-0.405371 -0.202692,-0.825767 -0.225212,-1.261186 -10e-7,-0.03753 -0.0038,-0.08632 -0.01126,-0.146388 -2e-6,-0.06005 -2e-6,-0.105088 0,-0.135127 -2e-6,-1.208626 0.390365,-2.162022 1.171102,-2.860192 0.780731,-0.70565 1.752895,-1.058481 2.916494,-1.058496 2.762592,1.5e-5 4.14389,1.418848 4.1439,4.256506 -1e-5,1.171111 -0.596821,2.391008 -1.790435,3.659694 -0.315304,0.315303 -0.870827,0.807015 -1.666568,1.475138 -0.795755,0.668133 -1.388812,1.193627 -1.779175,1.576483 -0.36785,0.360343 -0.645611,0.724435 -0.833284,1.092278 -0.18768,0.360342 -0.289025,0.660624 -0.304036,0.900848 l 6.587449,-0.02252 0,1.745392 -8.546793,0 c -1e-6,-0.112605 -0.0038,-0.285268 -0.01126,-0.517987 -0.0075,-0.240225 -0.01126,-0.424148 -0.01126,-0.551769 -10e-7,-0.352831 0.02252,-0.656867 0.06756,-0.912109 0.202689,-1.111042 0.848296,-2.173291 1.936822,-3.186749 0.397871,-0.36784 0.957147,-0.837031 1.677829,-1.407574 0.720673,-0.578037 1.227399,-1.009693 1.520181,-1.294969 0.420388,-0.397866 0.750699,-0.829522 0.990932,-1.294969 0.247726,-0.472935 0.371592,-0.885823 0.3716,-1.238665 -8e-6,-0.720667 -0.187684,-1.321232 -0.56303,-1.801696 -0.367853,-0.480439 -0.934636,-0.720665 -1.70035,-0.720678 -0.758218,1.3e-5 -1.347522,0.213964 -1.767914,0.641854 -0.420399,0.427915 -0.630596,1.077275 -0.630593,1.948083 -3e-6,0.202701 0.04879,0.439173 0.146388,0.709418"
       style="text-align:center;line-height:125%;text-anchor:middle;font-family:Fantasque Sans Mono;-inkscape-font-specification:Fantasque Sans Mono"
       id="path3169" />
  </g>
  <path
     transform="matrix(1.0482592,0,0,1.0482592,-14.386523,-8.3375938)"
     style="fill:#ffffff;fill-opacity:1;stroke:#000000;stroke-opacity:1"
     d="m 41.012193,31.273558 c 0,6.248388 -5.06532,11.313708 -11.313709,11.313708 -6.248388,0 -11.313708,-5.06532 -11.313708,-11.313708 0,-6.248389 5.06532,-11.313709 11.313708,-11.313709 6.248389,0 11.313709,5.06532 11.313709,11.313709 z"
     id="path4451" />
  <g
     style="font-size:23.06170273px;font-style:normal;font-variant:normal;font-weight:normal;font-stretch:normal;line-height:125%;letter-spacing:0px;word-spacing:0px;fill:#000000;fill-opacity:1;stroke:none;font-family:Fantasque Sans Mono;-inkscape-font-specification:Fantasque Sans Mono"
     id="text3504">
    <path
       d="m 16.281723,16.988168 2.229598,0.135127 0,14.627516 -1.846738,0 -0.02252,-11.981275 c -0.585556,0.735703 -1.782932,1.76417 -3.59213,3.085403 l -1.137321,-1.70035 c 0.465437,-0.27775 0.900846,-0.563019 1.30623,-0.855805 0.412885,-0.292764 0.761963,-0.570525 1.047235,-0.833284 0.285265,-0.262735 0.540505,-0.510468 0.765721,-0.7432 0.232714,-0.240213 0.420391,-0.461671 0.563029,-0.664375 0.150137,-0.210184 0.27025,-0.3866 0.36034,-0.529248 0.09759,-0.14262 0.172657,-0.266487 0.225212,-0.3716 0.06005,-0.105084 0.09383,-0.161387 0.101345,-0.168909"
       style="text-align:center;line-height:125%;text-anchor:middle;font-family:Fantasque Sans Mono;-inkscape-font-specification:Fantasque Sans Mono"
       id="path3173" />
  </g>
  <g
     style="font-size:23.06170273px;font-style:normal;font-variant:normal;font-weight:normal;font-stretch:normal;line-height:125%;letter-spacing:0px;word-spacing:0px;fill:#000000;fill-opacity:1;stroke:none;font-family:Fantasque Sans Mono;-inkscape-font-specification:Fantasque Sans Mono"
     id="text3512">
    <path
       d="m 578.38784,72.625358 c -10e-6,-0.578033 -0.0826,-1.050978 -0.24773,-1.418835 -0.16517,-0.367834 -0.43542,-0.649349 -0.81077,-0.844545 -0.37536,-0.202678 -0.7995,-0.341559 -1.27244,-0.416642 -0.46545,-0.08257 -1.07352,-0.131361 -1.82422,-0.146388 -0.26275,1.3e-5 -0.58931,0.01127 -0.97967,0.03378 -0.38287,0.01503 -0.62309,0.02253 -0.72068,0.02252 l 0,1.418835 -0.0113,4.583063 c 0.27025,0.0075 0.65686,0.01127 1.15984,0.01126 1.68158,7e-6 2.88646,-0.228958 3.61465,-0.686896 0.72818,-0.46543 1.09227,-1.317481 1.09228,-2.556156 m -5.87803,10.247143 -1.77918,-0.01126 0,-14.672558 c 0.42791,1.4e-5 0.94965,-0.015 1.56523,-0.04504 0.61557,-0.03001 1.1786,-0.04503 1.68909,-0.04504 0.57053,1.5e-5 1.04347,0.01127 1.41883,0.03378 0.37535,0.01503 0.76947,0.05632 1.18237,0.123866 0.42038,0.06007 0.77697,0.150156 1.06975,0.270255 0.30028,0.120127 0.5968,0.285282 0.88959,0.495466 0.30027,0.210211 0.57803,0.469205 0.83328,0.776981 0.55552,0.668141 0.83328,1.587756 0.83329,2.758846 -10e-6,1.343774 -0.25525,2.387255 -0.76572,3.130446 -0.52551,0.75822 -1.16736,1.264947 -1.92557,1.520181 -0.75822,0.247738 -1.85049,0.371605 -3.27683,0.3716 -0.54051,5e-6 -1.1148,-0.01126 -1.72287,-0.03378 0,1.088528 -0.004,2.128256 -0.0113,3.119185 0,0.983427 0,1.719118 0,2.207077"
       style="text-align:center;line-height:125%;text-anchor:middle;font-family:Fantasque Sans Mono;-inkscape-font-specification:Fantasque Sans Mono"
       id="path3176" />
  </g>
  <path
     transform="matrix(1.0482592,0,0,1.0482592,485.69743,42.807359)"
     style="fill:#ffffff;fill-opacity:1;stroke:#000000;stroke-opacity:1"
     d="m 41.012193,31.273558 c 0,6.248388 -5.06532,11.313708 -11.313709,11.313708 -6.248388,0 -11.313708,-5.06532 -11.313708,-11.313708 0,-6.248389 5.06532,-11.313709 11.313708,-11.313709 6.248389,0 11.313709,5.06532 11.313709,11.313709 z"
     id="path4457" />
  <g
     style="font-size:23.06170273px;font-style:normal;font-variant:normal;font-weight:normal;font-stretch:normal;line-height:125%;letter-spacing:0px;word-spacing:0px;fill:#000000;fill-opacity:1;stroke:none;font-family:Fantasque Sans Mono;-inkscape-font-specification:Fantasque Sans Mono"
     id="text3516">
    <path
       d="m 516.39216,67.828344 c 0.23271,1.5e-5 0.47294,0.02254 0.72068,0.06756 0.24773,0.03755 0.5405,0.127635 0.87833,0.270255 0.34531,0.135141 0.66812,0.315311 0.96841,0.540508 0.30027,0.217719 0.60431,0.529262 0.91211,0.93463 0.31528,0.397887 0.58178,0.859571 0.7995,1.385053 0.2252,0.525506 0.40912,1.182373 0.55177,1.970605 0.15013,0.78825 0.22895,1.659069 0.23647,2.612458 l 0,0.123867 c -10e-6,0.870825 -0.10136,1.715369 -0.30404,2.533634 -0.19519,0.818274 -0.43917,1.512677 -0.73194,2.083211 -0.42791,0.818271 -0.99844,1.448864 -1.71161,1.89178 -0.71317,0.442917 -1.53144,0.664375 -2.45481,0.664375 -0.72819,0 -1.42259,-0.131374 -2.08321,-0.394121 -0.65311,-0.270254 -1.19738,-0.675635 -1.63278,-1.216144 -1.03598,-1.268691 -1.55397,-2.927751 -1.55397,-4.977184 0,-1.749138 0.15015,-3.12293 0.45043,-4.121379 0.30028,-1.005935 0.69815,-1.842972 1.19362,-2.511113 0.39787,-0.548002 0.91586,-0.990918 1.55396,-1.32875 0.6381,-0.337803 1.37379,-0.514219 2.20708,-0.529248 m -2.68002,12.172705 c 0.59305,0.788244 1.44135,1.182364 2.54489,1.182363 1.14858,10e-7 2.0269,-0.563028 2.63498,-1.68909 0.2177,-0.345321 0.40162,-0.904597 0.55177,-1.677829 0.15014,-0.773222 0.22896,-1.478885 0.23648,-2.116992 l 0,-0.213951 c -10e-6,-1.764152 -0.26276,-3.156711 -0.78825,-4.177682 -0.59306,-1.171089 -1.40382,-1.75664 -2.43229,-1.756653 -0.533,1.3e-5 -0.97967,0.0901 -1.34001,0.270254 -0.36034,0.172676 -0.70191,0.472958 -1.02471,0.900848 -0.88584,1.141085 -1.32875,2.991574 -1.32875,5.551474 0,0.645614 0.0826,1.33251 0.24773,2.06069 0.17266,0.728189 0.40538,1.283711 0.69816,1.666568"
       style="text-align:center;line-height:125%;text-anchor:middle;font-family:Fantasque Sans Mono;-inkscape-font-specification:Fantasque Sans Mono"
       id="path3180" />
  </g>
  <path
     transform="matrix(1.0482592,0,0,1.0482592,426.89308,42.807359)"
     style="fill:#ffffff;fill-opacity:1;stroke:#000000;stroke-opacity:1"
     d="m 41.012193,31.273558 c 0,6.248388 -5.06532,11.313708 -11.313709,11.313708 -6.248388,0 -11.313708,-5.06532 -11.313708,-11.313708 0,-6.248389 5.06532,-11.313709 11.313708,-11.313709 6.248389,0 11.313709,5.06532 11.313709,11.313709 z"
     id="path4459" />
  <g
     style="font-size:23.06170273px;font-style:normal;font-variant:normal;font-weight:normal;font-stretch:normal;line-height:125%;letter-spacing:0px;word-spacing:0px;fill:#000000;fill-opacity:1;stroke:none;font-family:Fantasque Sans Mono;-inkscape-font-specification:Fantasque Sans Mono"
     id="text3520">
    <path
       d="m 453.58575,68.14364 c 1.1711,-0.03001 2.42102,-0.04503 3.74978,-0.04504 0.89333,1.5e-5 2.25962,0.01127 4.09886,0.03378 l 0,1.711611 c -0.48797,1.2e-5 -1.02848,-0.0075 -1.62153,-0.02252 -0.58556,-0.02251 -1.04724,-0.03377 -1.38505,-0.03378 l 0,11.260597 c 0.16514,10e-7 0.3866,10e-7 0.66437,0 0.28526,-0.0075 0.52549,-0.01126 0.72068,-0.01126 0.56302,2e-6 1.10353,0.01502 1.62153,0.04504 l 0,1.68909 c -0.76573,-0.04504 -1.55398,-0.06756 -2.36473,-0.06756 -0.16516,0 -0.43917,0.0038 -0.82202,0.01126 -0.38287,0 -0.69066,0 -0.92337,0 -0.2027,0 -0.70567,0.01501 -1.50892,0.04504 -0.80326,0.02252 -1.5352,0.03378 -2.19582,0.03378 l 0,-1.677829 c 0.79575,-0.03753 1.51642,-0.0563 2.16204,-0.0563 l 0.84454,0 0,-11.260597 c -1.44136,0.02253 -2.43229,0.04881 -2.9728,0.07882 l -0.0676,-1.734132"
       style="text-align:center;line-height:125%;text-anchor:middle;font-family:Fantasque Sans Mono;-inkscape-font-specification:Fantasque Sans Mono"
       id="path3184" />
  </g>
  <path
     transform="matrix(1.0482592,0,0,1.0482592,368.08875,42.807359)"
     style="fill:#ffffff;fill-opacity:1;stroke:#000000;stroke-opacity:1"
     d="m 41.012193,31.273558 c 0,6.248388 -5.06532,11.313708 -11.313709,11.313708 -6.248388,0 -11.313708,-5.06532 -11.313708,-11.313708 0,-6.248389 5.06532,-11.313709 11.313708,-11.313709 6.248389,0 11.313709,5.06532 11.313709,11.313709 z"
     id="path4461" />
  <g
     style="font-size:23.06170273px;font-style:normal;font-variant:normal;font-weight:normal;font-stretch:normal;line-height:125%;letter-spacing:0px;word-spacing:0px;fill:#000000;fill-opacity:1;stroke:none;font-family:Fantasque Sans Mono;-inkscape-font-specification:Fantasque Sans Mono"
     id="text3524">
    <path
       d="m 401.78085,67.974731 1.76791,0.146388 c -0.0676,0.450438 -0.10135,1.039742 -0.10134,1.767914 -1e-5,0.578056 0.004,1.34753 0.0113,2.308422 0.007,0.953407 0.0112,1.621535 0.0113,2.004387 l 0,0.653114 c -1e-5,0.818277 -0.0113,1.475145 -0.0338,1.970605 -0.015,0.495471 -0.0638,1.062254 -0.14639,1.70035 -0.0751,0.638104 -0.20646,1.193626 -0.39412,1.666568 -0.18769,0.472947 -0.43167,0.882082 -0.73194,1.227405 -0.43542,0.502974 -0.9459,0.863313 -1.53144,1.081018 -0.58556,0.217705 -1.27246,0.341571 -2.06069,0.371599 -0.85581,0 -1.584,-0.108852 -2.18456,-0.326557 -0.59306,-0.225212 -1.06976,-0.566783 -1.43009,-1.024714 -0.36034,-0.45793 -0.6306,-0.990931 -0.81077,-1.599005 -0.18017,-0.608069 -0.29653,-1.340007 -0.34907,-2.195817 -0.0526,-0.788236 -0.0788,-2.034407 -0.0788,-3.738518 0,-2.147009 0.0338,-4.110105 0.10135,-5.889292 l 1.77917,0 c -0.0601,2.477344 -0.0901,4.631869 -0.0901,6.463583 -10e-6,1.538955 0.0263,2.623724 0.0788,3.254312 0.0976,1.171106 0.3791,2.023157 0.84455,2.556156 0.46543,0.533003 1.1298,0.799504 1.99312,0.799502 0.58555,-0.03003 1.05098,-0.112604 1.39631,-0.247733 0.35283,-0.142632 0.68314,-0.375351 0.99094,-0.698157 0.58554,-0.645604 0.87832,-2.436038 0.87832,-5.371305 0,-0.420387 -0.0113,-1.1786 -0.0338,-2.27464 -0.015,-1.096021 -0.0225,-1.985607 -0.0225,-2.668762 -10e-6,-0.683129 0.0488,-1.328736 0.14639,-1.936823"
       style="text-align:center;line-height:125%;text-anchor:middle;font-family:Fantasque Sans Mono;-inkscape-font-specification:Fantasque Sans Mono"
       id="path3188" />
  </g>
  <path
     transform="matrix(1.0482592,0,0,1.0482592,309.2844,42.807359)"
     style="fill:#ffffff;fill-opacity:1;stroke:#000000;stroke-opacity:1"
     d="m 41.012193,31.273558 c 0,6.248388 -5.06532,11.313708 -11.313709,11.313708 -6.248388,0 -11.313708,-5.06532 -11.313708,-11.313708 0,-6.248389 5.06532,-11.313709 11.313708,-11.313709 6.248389,0 11.313709,5.06532 11.313709,11.313709 z"
     id="path4463" />
  <g
     style="font-size:23.06170273px;font-style:normal;font-variant:normal;font-weight:normal;font-stretch:normal;line-height:125%;letter-spacing:0px;word-spacing:0px;fill:#000000;fill-opacity:1;stroke:none;font-family:Fantasque Sans Mono;-inkscape-font-specification:Fantasque Sans Mono"
     id="text3528">
    <path
       d="m 338.68163,82.827459 0,-1.587744 c 0,-0.307788 0.0113,-1.141071 0.0338,-2.499853 0.03,-1.358773 0.045,-2.274634 0.045,-2.747585 -0.41289,-0.578037 -1.13357,-1.779166 -2.16203,-3.603392 -1.02847,-1.831711 -1.70786,-3.092897 -2.03817,-3.78356 l 1.57649,-0.799503 c 0.35283,0.675651 0.93087,1.745406 1.73413,3.209271 0.81076,1.45638 1.43009,2.522383 1.858,3.198009 0.51798,-0.735683 1.21989,-1.876756 2.10573,-3.423221 0.88582,-1.546442 1.4451,-2.589923 1.67783,-3.130446 l 1.56522,0.889587 c -0.82579,1.651567 -1.67033,3.167992 -2.53363,4.549281 -0.27027,0.405391 -0.56304,0.852061 -0.87833,1.340011 -0.3078,0.48046 -0.55553,0.859566 -0.7432,1.13732 -0.18018,0.277769 -0.30029,0.457938 -0.36034,0.540509 -10e-6,0.172669 -0.004,0.442923 -0.0113,0.810763 -0.008,0.367852 -0.0113,0.656873 -0.0113,0.867066 -0.0375,1.651558 -0.0563,2.837673 -0.0563,3.558349 l 0,1.475138 -1.8017,0"
       style="text-align:center;line-height:125%;text-anchor:middle;font-family:Fantasque Sans Mono;-inkscape-font-specification:Fantasque Sans Mono"
       id="path3192" />
  </g>
  <path
     transform="matrix(1.0482592,0,0,1.0482592,250.48008,42.807359)"
     style="fill:#ffffff;fill-opacity:1;stroke:#000000;stroke-opacity:1"
     d="m 41.012193,31.273558 c 0,6.248388 -5.06532,11.313708 -11.313709,11.313708 -6.248388,0 -11.313708,-5.06532 -11.313708,-11.313708 0,-6.248389 5.06532,-11.313709 11.313708,-11.313709 6.248389,0 11.313709,5.06532 11.313709,11.313709 z"
     id="path4465" />
  <g
     style="font-size:23.06170273px;font-style:normal;font-variant:normal;font-weight:normal;font-stretch:normal;line-height:125%;letter-spacing:0px;word-spacing:0px;fill:#000000;fill-opacity:1;stroke:none;font-family:Fantasque Sans Mono;-inkscape-font-specification:Fantasque Sans Mono"
     id="text3532">
    <path
       d="m 279.88399,82.861241 0,-12.983469 c -0.85581,1.3e-5 -1.71161,0.0038 -2.56742,0.01126 -0.84829,1.3e-5 -1.35877,1.3e-5 -1.53144,0 l 0,-1.745393 c 0.39788,1.5e-5 1.73789,1.5e-5 4.02004,0 2.28964,-0.0075 3.81733,-0.01125 4.58306,-0.01126 0.37534,1.4e-5 0.90084,0.05632 1.57648,0.168909 l -0.3716,1.71161 c -0.46544,-0.09007 -0.88584,-0.135114 -1.26118,-0.135127 l -2.64624,0 0,12.983469 -1.8017,0"
       style="text-align:center;line-height:125%;text-anchor:middle;font-family:Fantasque Sans Mono;-inkscape-font-specification:Fantasque Sans Mono"
       id="path3196" />
  </g>
  <path
     style="fill:#ffffff;fill-opacity:1;stroke:#000000;stroke-opacity:1"
     d="m 41.012193,31.273558 c 0,6.248388 -5.06532,11.313708 -11.313709,11.313708 -6.248388,0 -11.313708,-5.06532 -11.313708,-11.313708 0,-6.248389 5.06532,-11.313709 11.313708,-11.313709 6.248389,0 11.313709,5.06532 11.313709,11.313709 z"
     id="path4467"
     transform="matrix(1.0482592,0,0,1.0482592,191.67574,42.807359)" />
  <g
     style="font-size:23.06170273px;font-style:normal;font-variant:normal;font-weight:normal;font-stretch:normal;line-height:125%;letter-spacing:0px;word-spacing:0px;fill:#000000;fill-opacity:1;stroke:none;font-family:Fantasque Sans Mono;-inkscape-font-specification:Fantasque Sans Mono"
     id="text3536">
    <path
       d="m 223.84517,76.679173 c 0.045,0.06757 0.2252,0.349084 0.54051,0.844545 0.31528,0.495471 0.53299,0.840795 0.65311,1.035975 0.12761,0.195187 0.31153,0.476702 0.55177,0.844544 0.24022,0.360343 0.43915,0.649364 0.59681,0.867066 0.16515,0.217708 0.30778,0.397877 0.4279,0.540509 0.015,0.01502 0.06,0.0563 0.13513,0.123867 0.0751,0.06757 0.13512,0.123868 0.18017,0.168909 0.0525,0.03754 0.11635,0.08633 0.19143,0.146387 0.0826,0.06006 0.16515,0.112608 0.24773,0.157649 0.0901,0.03754 0.18016,0.06757 0.27026,0.09008 l -0.66438,1.50892 c -0.3153,-0.04504 -0.61934,-0.161402 -0.91211,-0.349078 -0.28527,-0.187676 -0.52925,-0.405381 -0.73193,-0.653115 -0.72069,-0.78824 -1.88804,-2.541138 -3.50205,-5.258698 -0.57805,-0.06005 -1.42635,-0.183917 -2.54489,-0.3716 l 0.0113,6.384758 -1.77918,0 0,-12.533044 c 0,-0.743186 -0.0188,-1.400054 -0.0563,-1.970605 1.17861,-0.112591 1.99688,-0.168894 2.45481,-0.168909 0.6381,1.5e-5 1.16734,0.01128 1.58774,0.03378 0.4279,0.01503 0.88208,0.06007 1.36254,0.135127 0.48044,0.06758 0.88958,0.168924 1.2274,0.304036 0.33781,0.127635 0.67187,0.307804 1.00219,0.540509 0.33781,0.225225 0.64185,0.502987 0.91211,0.833284 0.27775,0.345338 0.50297,0.750719 0.67564,1.216145 0.17265,0.457942 0.25898,0.915872 0.25899,1.373793 -1e-5,2.432296 -1.03223,3.817348 -3.09666,4.15516 m 1.35127,-3.997512 c -1e-5,-0.660611 -0.21396,-1.234901 -0.64186,-1.722871 -0.36785,-0.427891 -0.90085,-0.72442 -1.599,-0.889588 -0.69816,-0.172649 -1.69285,-0.25898 -2.98406,-0.258993 -0.25524,1.3e-5 -0.49171,0.0038 -0.70942,0.01126 l 0.0225,4.842057 c 0.18767,0.03754 0.51047,0.105107 0.96841,0.202691 0.45792,0.09009 0.82952,0.157656 1.1148,0.202691 0.28526,0.03754 0.56677,0.05631 0.84454,0.0563 0.18767,7e-6 0.37159,-0.01125 0.55177,-0.03378 0.4354,-0.05254 0.78823,-0.120106 1.0585,-0.202691 0.27024,-0.09008 0.51798,-0.22145 0.7432,-0.394121 0.2252,-0.172654 0.3866,-0.405373 0.4842,-0.698157 0.0976,-0.292766 0.14638,-0.664366 0.14639,-1.114799"
       style="text-align:center;line-height:125%;text-anchor:middle;font-family:Fantasque Sans Mono;-inkscape-font-specification:Fantasque Sans Mono"
       id="path3200" />
  </g>
  <path
     transform="matrix(1.0482592,0,0,1.0482592,132.87141,42.807359)"
     style="fill:#ffffff;fill-opacity:1;stroke:#000000;stroke-opacity:1"
     d="m 41.012193,31.273558 c 0,6.248388 -5.06532,11.313708 -11.313709,11.313708 -6.248388,0 -11.313708,-5.06532 -11.313708,-11.313708 0,-6.248389 5.06532,-11.313709 11.313708,-11.313709 6.248389,0 11.313709,5.06532 11.313709,11.313709 z"
     id="path4469" />
  <g
     style="font-size:23.06170273px;font-style:normal;font-variant:normal;font-weight:normal;font-stretch:normal;line-height:125%;letter-spacing:0px;word-spacing:0px;fill:#000000;fill-opacity:1;stroke:none;font-family:Fantasque Sans Mono;-inkscape-font-specification:Fantasque Sans Mono"
     id="text3540">
    <path
       d="m 158.8091,68.199943 c 0.42039,-0.03001 1.18611,-0.04503 2.29716,-0.04504 -1e-5,1.5e-5 0.36784,1.5e-5 1.10354,0 l 1.23866,0 c 0.63059,1.5e-5 1.40757,0.0075 2.33095,0.02252 0.93086,0.0075 1.5014,0.01127 1.71161,0.01126 l 0.18017,0 0,1.689089 -7.08292,0 0,3.693476 4.93214,0 0,1.68909 -4.93214,0 0,0.337818 c 0,0.878332 -0.008,1.974363 -0.0225,3.288094 -0.008,1.306232 -0.0113,2.045677 -0.0113,2.218338 l 5.91181,-0.02252 c 0.18767,2e-6 0.39036,-0.02252 0.60807,-0.06756 0.2177,-0.05255 0.39036,-0.101344 0.51799,-0.146388 l 0.19143,-0.07882 0.49547,1.666568 c -0.0676,0.02252 -0.19144,0.06006 -0.3716,0.112606 -0.18018,0.05255 -0.31906,0.09384 -0.41664,0.123867 -0.0976,0.02252 -0.24024,0.04504 -0.42791,0.06756 -0.18018,0.02252 -0.37161,0.03378 -0.57429,0.03378 l -7.67972,0 0,-14.593734"
       style="text-align:center;line-height:125%;text-anchor:middle;font-family:Fantasque Sans Mono;-inkscape-font-specification:Fantasque Sans Mono"
       id="path3204" />
  </g>
  <path
     transform="matrix(1.0482592,0,0,1.0482592,74.067063,42.807359)"
     style="fill:#ffffff;fill-opacity:1;stroke:#000000;stroke-opacity:1"
     d="m 41.012193,31.273558 c 0,6.248388 -5.06532,11.313708 -11.313709,11.313708 -6.248388,0 -11.313708,-5.06532 -11.313708,-11.313708 0,-6.248389 5.06532,-11.313709 11.313708,-11.313709 6.248389,0 11.313709,5.06532 11.313709,11.313709 z"
     id="path4471" />
  <g
     style="font-size:23.06170273px;font-style:normal;font-variant:normal;font-weight:normal;font-stretch:normal;line-height:125%;letter-spacing:0px;word-spacing:0px;fill:#000000;fill-opacity:1;stroke:none;font-family:Fantasque Sans Mono;-inkscape-font-specification:Fantasque Sans Mono"
     id="text3544">
    <path
       d="m 102.55634,82.759895 -1.47513,0 c -0.18018,-0.705663 -0.55553,-3.104168 -1.126064,-7.195521 -0.570538,-4.098846 -0.927123,-6.527379 -1.069757,-7.285606 l 1.734131,-0.36034 c 0.39787,2.124512 0.67939,3.86615 0.84455,5.224917 0.16515,1.35128 0.28151,2.529888 0.34907,3.535828 0.0676,1.005952 0.15765,1.914306 0.27026,2.725064 0.35283,-1.171097 0.70191,-2.574917 1.04723,-4.211463 0.34532,-1.644038 0.54051,-2.713793 0.58556,-3.20927 0.99843,1.1e-5 1.62527,-0.04503 1.88052,-0.135127 0.03,0.150152 0.13512,0.716935 0.31529,1.70035 0.18016,0.983434 0.31529,1.711618 0.40538,2.184556 0.0901,0.465444 0.22145,1.069762 0.39412,1.812956 0.17266,0.735697 0.33406,1.347522 0.48421,1.835477 0.0751,-0.638096 0.13512,-1.448858 0.18017,-2.432289 0.0525,-0.990925 0.16139,-2.158273 0.32656,-3.502045 0.16514,-1.351261 0.46167,-3.182983 0.88958,-5.495172 l 1.77918,0.360339 c -0.21772,1.066017 -0.60808,3.618416 -1.1711,7.657206 -0.56304,4.038804 -0.8896,6.302182 -0.97968,6.79014 l -1.53144,0 c -1.09604,-3.220527 -1.76416,-5.52144 -2.00438,-6.902746 -0.34533,1.644053 -1.05475,3.944966 -2.12826,6.902746"
       style="text-align:center;line-height:125%;text-anchor:middle;font-family:Fantasque Sans Mono;-inkscape-font-specification:Fantasque Sans Mono"
       id="path3208" />
  </g>
  <path
     transform="matrix(1.0482592,0,0,1.0482592,15.262726,42.807359)"
     style="fill:#ffffff;fill-opacity:1;stroke:#000000;stroke-opacity:1"
     d="m 41.012193,31.273558 c 0,6.248388 -5.06532,11.313708 -11.313709,11.313708 -6.248388,0 -11.313708,-5.06532 -11.313708,-11.313708 0,-6.248389 5.06532,-11.313709 11.313708,-11.313709 6.248389,0 11.313709,5.06532 11.313709,11.313709 z"
     id="path4473" />
  <g
     style="font-size:23.06170273px;font-style:normal;font-variant:normal;font-weight:normal;font-stretch:normal;line-height:125%;letter-spacing:0px;word-spacing:0px;fill:#000000;fill-opacity:1;stroke:none;font-family:Fantasque Sans Mono;-inkscape-font-specification:Fantasque Sans Mono"
     id="text3548">
    <path
       d="m 49.985795,84.403942 c -0.750715,-10e-7 -1.403829,-0.138882 -1.959343,-0.416642 -0.555531,-0.277762 -0.900855,-0.743199 -1.035975,-1.396314 -0.50298,0.135128 -0.960911,0.202691 -1.373793,0.202691 -1.36629,0 -2.503609,-0.465437 -3.411961,-1.396314 -1.111047,-1.156085 -1.666569,-3.062878 -1.666568,-5.720383 -1e-6,-2.717548 0.465437,-4.673136 1.396314,-5.866771 0.50297,-0.645594 1.035972,-1.096018 1.599004,-1.351272 0.563026,-0.262733 1.212387,-0.394106 1.948084,-0.394121 1.854237,1.5e-5 3.213015,0.773242 4.076336,2.319683 0.300272,0.533014 0.529238,1.114811 0.686896,1.745393 0.165145,0.630603 0.262737,1.14859 0.292776,1.553962 0.03002,0.40539 0.04503,0.882088 0.04504,1.430096 -1.1e-5,2.177054 -0.349089,3.858635 -1.047235,5.044747 -0.480462,0.788244 -0.82954,1.306231 -1.047236,1.553963 0.06005,0.397875 0.187668,0.668129 0.38286,0.810763 0.195175,0.135127 0.525485,0.210198 0.990933,0.225212 l 0.123866,0 c 0.330301,0 0.645597,-0.03754 0.945891,-0.112606 l 0,1.666568 c -0.300294,0.06756 -0.61559,0.101344 -0.945891,0.101345 m -4.357851,-6.486103 c 1.328744,4e-6 2.124492,0.540513 2.387247,1.621526 0.517979,-0.653111 0.776972,-2.071945 0.776981,-4.256506 l 0,-0.304036 c -9e-6,-0.502965 -0.01127,-0.915853 -0.03378,-1.238666 -0.02253,-0.330301 -0.09385,-0.731929 -0.213951,-1.204884 -0.120121,-0.472934 -0.296537,-0.90459 -0.529248,-1.294968 -0.270262,-0.450412 -0.626847,-0.803244 -1.069757,-1.058497 -0.435416,-0.262734 -0.930882,-0.394107 -1.486399,-0.39412 -1.013458,1.3e-5 -1.790438,0.450436 -2.330943,1.351271 -0.533004,0.900859 -0.799505,2.180812 -0.799503,3.839864 -2e-6,2.372238 0.281513,3.974994 0.844545,4.808275 0.105096,-0.352829 0.251483,-0.656865 0.439164,-0.912109 0.195179,-0.262743 0.412884,-0.457926 0.653114,-0.585551 0.240222,-0.135122 0.469187,-0.22896 0.686897,-0.281515 0.225206,-0.06005 0.450418,-0.09008 0.675635,-0.09008 m 1.182363,2.961537 c -0.01502,-0.555521 -0.127627,-0.949641 -0.337818,-1.182363 -0.202697,-0.240223 -0.536761,-0.360336 -1.002193,-0.360339 -0.375358,3e-6 -0.698162,0.12387 -0.968411,0.3716 -0.262752,0.247735 -0.394125,0.551771 -0.394121,0.912108 l 0,0.04504 c 0.292771,0.315299 0.754455,0.472947 1.385053,0.472945 0.487953,2e-6 0.927116,-0.08633 1.31749,-0.258993"
       style="text-align:center;line-height:125%;text-anchor:middle;font-family:Fantasque Sans Mono;-inkscape-font-specification:Fantasque Sans Mono"
       id="path3212" />
  </g>
  <g
     style="font-size:23.06170273px;font-style:normal;font-variant:normal;font-weight:normal;font-stretch:normal;line-height:125%;letter-spacing:0px;word-spacing:0px;fill:#000000;fill-opacity:1;stroke:none;font-family:Fantasque Sans Mono;-inkscape-font-specification:Fantasque Sans Mono"
     id="text3556">
    <path
       d="m 541.84112,133.85133 0,-14.65003 1.81296,0 0,12.9159 5.86677,0 c 0.49546,-0.0225 0.94963,-0.1051 1.36253,-0.24773 l 0.46169,1.64404 c -0.66063,0.22522 -1.2612,0.33782 -1.8017,0.33782 l -7.70225,0"
       style="text-align:center;line-height:125%;text-anchor:middle;font-family:Fantasque Sans Mono;-inkscape-font-specification:Fantasque Sans Mono"
       id="path3215" />
  </g>
  <path
     transform="matrix(1.0482592,0,0,1.0482592,456.17172,93.767004)"
     style="fill:#ffffff;fill-opacity:1;stroke:#000000;stroke-opacity:1"
     d="m 41.012193,31.273558 c 0,6.248388 -5.06532,11.313708 -11.313709,11.313708 -6.248388,0 -11.313708,-5.06532 -11.313708,-11.313708 0,-6.248389 5.06532,-11.313709 11.313708,-11.313709 6.248389,0 11.313709,5.06532 11.313709,11.313709 z"
     id="path4499" />
  <g
     style="font-size:23.06170273px;font-style:normal;font-variant:normal;font-weight:normal;font-stretch:normal;line-height:125%;letter-spacing:0px;word-spacing:0px;fill:#000000;fill-opacity:1;stroke:none;font-family:Fantasque Sans Mono;-inkscape-font-specification:Fantasque Sans Mono"
     id="text3560">
    <path
       d="m 486.8608,125.65362 c 0.81075,0.78825 1.91804,2.06445 3.32187,3.8286 1.41132,1.75666 2.24836,2.98031 2.51112,3.67096 l -1.50892,0.8558 c -0.24775,-0.59306 -1.02097,-1.71161 -2.31969,-3.35566 -1.29122,-1.65155 -2.31969,-2.84892 -3.0854,-3.59213 -0.6306,0.7357 -1.0585,1.37005 -1.28371,1.90304 l 0,4.90962 -1.77917,0 0,-14.78516 1.77917,0 0,6.81266 c 0.71317,-0.99092 1.65155,-2.09071 2.81515,-3.29935 0.63059,-0.6456 1.24241,-1.24241 1.83548,-1.79044 0.59305,-0.548 1.06224,-0.9684 1.40757,-1.26119 0.35283,-0.30026 0.5405,-0.46167 0.56303,-0.4842 l 1.24993,1.19362 c -0.89335,0.64562 -1.8993,1.54272 -3.01784,2.69128 -1.11105,1.14109 -1.94058,2.04193 -2.48859,2.70255"
       style="text-align:center;line-height:125%;text-anchor:middle;font-family:Fantasque Sans Mono;-inkscape-font-specification:Fantasque Sans Mono"
       id="path3219" />
  </g>
  <path
     transform="matrix(1.0482592,0,0,1.0482592,397.36738,93.767004)"
     style="fill:#ffffff;fill-opacity:1;stroke:#000000;stroke-opacity:1"
     d="m 41.012193,31.273558 c 0,6.248388 -5.06532,11.313708 -11.313709,11.313708 -6.248388,0 -11.313708,-5.06532 -11.313708,-11.313708 0,-6.248389 5.06532,-11.313709 11.313708,-11.313709 6.248389,0 11.313709,5.06532 11.313709,11.313709 z"
     id="path4501" />
  <g
     style="font-size:23.06170273px;font-style:normal;font-variant:normal;font-weight:normal;font-stretch:normal;line-height:125%;letter-spacing:0px;word-spacing:0px;fill:#000000;fill-opacity:1;stroke:none;font-family:Fantasque Sans Mono;-inkscape-font-specification:Fantasque Sans Mono"
     id="text3564">
    <path
       d="m 427.22978,133.90764 c -0.60057,0 -1.14108,-0.0901 -1.62152,-0.27026 -0.48046,-0.18768 -0.87833,-0.43541 -1.19363,-0.7432 -0.3153,-0.30779 -0.5818,-0.67563 -0.7995,-1.10354 -0.2102,-0.4279 -0.36034,-0.87081 -0.45042,-1.32875 -0.0901,-0.45792 -0.13889,-0.93838 -0.14639,-1.44135 l 1.80169,0.0113 c 0.015,0.44292 0.0676,0.8483 0.15765,1.21614 0.0976,0.36785 0.23272,0.70567 0.40538,1.01346 0.18017,0.30028 0.42415,0.53675 0.73194,0.70941 0.3153,0.16516 0.67939,0.24774 1.09228,0.24774 0.41288,0 0.76572,-0.0826 1.0585,-0.24774 0.30027,-0.17266 0.5405,-0.40913 0.72067,-0.70941 0.18767,-0.30779 0.33406,-0.70942 0.43917,-1.20489 0.10509,-0.50297 0.17641,-1.03597 0.21395,-1.599 0.0375,-0.57053 0.0563,-1.25743 0.0563,-2.06069 0,-1.23866 -0.1051,-3.05912 -0.31529,-5.46139 -0.19519,1e-5 -0.52175,-0.004 -0.97968,-0.0113 -0.45793,-0.008 -0.75071,-0.0113 -0.87832,-0.0113 -0.27026,0.008 -0.50673,0.0225 -0.70942,0.045 -0.2027,0.015 -0.34158,0.03 -0.41664,0.045 -0.0751,0.008 -0.16892,0.0263 -0.28152,0.0563 -0.11261,0.0301 -0.18017,0.0488 -0.20269,0.0563 l -0.4279,-1.66657 c 0.63059,-0.15013 1.30247,-0.23271 2.01565,-0.24773 0.53299,1e-5 1.49014,0.004 2.87145,0.0113 1.38129,1e-5 2.36847,1e-5 2.96154,0 l -0.0225,1.72287 c -0.18018,1e-5 -0.5255,1e-5 -1.03597,0 -0.51049,-0.007 -0.85957,-0.0112 -1.04724,-0.0113 0.16515,1.83924 0.24773,3.72726 0.24774,5.66408 -1e-5,0.61558 -0.015,1.17111 -0.0451,1.66657 -0.0225,0.49547 -0.0713,1.00595 -0.14638,1.53144 -0.0751,0.51799 -0.17643,0.97216 -0.30404,1.36253 -0.12763,0.39037 -0.30029,0.76572 -0.51799,1.12606 -0.21771,0.36034 -0.47295,0.65687 -0.76572,0.88959 -0.29278,0.22521 -0.64937,0.40538 -1.06975,0.5405 -0.4129,0.13513 -0.87834,0.2027 -1.39632,0.2027"
       style="text-align:center;line-height:125%;text-anchor:middle;font-family:Fantasque Sans Mono;-inkscape-font-specification:Fantasque Sans Mono"
       id="path3223" />
  </g>
  <path
     transform="matrix(1.0482592,0,0,1.0482592,338.56304,93.767004)"
     style="fill:#ffffff;fill-opacity:1;stroke:#000000;stroke-opacity:1"
     d="m 41.012193,31.273558 c 0,6.248388 -5.06532,11.313708 -11.313709,11.313708 -6.248388,0 -11.313708,-5.06532 -11.313708,-11.313708 0,-6.248389 5.06532,-11.313709 11.313708,-11.313709 6.248389,0 11.313709,5.06532 11.313709,11.313709 z"
     id="path4503" />
  <g
     style="font-size:23.06170273px;font-style:normal;font-variant:normal;font-weight:normal;font-stretch:normal;line-height:125%;letter-spacing:0px;word-spacing:0px;fill:#000000;fill-opacity:1;stroke:none;font-family:Fantasque Sans Mono;-inkscape-font-specification:Fantasque Sans Mono"
     id="text3568">
    <path
       d="m 366.20254,119.22382 -0.0113,6.15954 c 0.92337,-0.21019 2.0757,-0.31528 3.45701,-0.31529 l 2.56741,0 c -1e-5,-1.13356 -0.004,-2.25587 -0.0113,-3.36692 -10e-6,-1.11103 -10e-6,-1.91804 0,-2.42103 l 1.79044,0 0,14.53743 -1.77918,0 0,-7.03787 -1.45261,0 c -2.05695,0 -3.58088,0.1051 -4.57181,0.31529 0,1.44137 0.004,2.79264 0.0113,4.05382 0.008,1.25368 0.0113,2.14327 0.0113,2.66876 l -1.81295,0 0,-14.57121 1.80169,-0.0225"
       style="text-align:center;line-height:125%;text-anchor:middle;font-family:Fantasque Sans Mono;-inkscape-font-specification:Fantasque Sans Mono"
       id="path3227" />
  </g>
  <path
     transform="matrix(1.0482592,0,0,1.0482592,279.75871,93.767004)"
     style="fill:#ffffff;fill-opacity:1;stroke:#000000;stroke-opacity:1"
     d="m 41.012193,31.273558 c 0,6.248388 -5.06532,11.313708 -11.313709,11.313708 -6.248388,0 -11.313708,-5.06532 -11.313708,-11.313708 0,-6.248389 5.06532,-11.313709 11.313708,-11.313709 6.248389,0 11.313709,5.06532 11.313709,11.313709 z"
     id="path4505" />
  <g
     style="font-size:23.06170273px;font-style:normal;font-variant:normal;font-weight:normal;font-stretch:normal;line-height:125%;letter-spacing:0px;word-spacing:0px;fill:#000000;fill-opacity:1;stroke:none;font-family:Fantasque Sans Mono;-inkscape-font-specification:Fantasque Sans Mono"
     id="text3572">
    <path
       d="m 314.57787,125.56353 c 0.4279,1e-5 0.91961,-0.0263 1.47514,-0.0788 l 0,1.52018 c -10e-6,1.19363 -0.0788,2.21083 -0.23647,3.05162 -0.15766,0.83329 -0.39789,1.49766 -0.72068,1.99313 -0.31531,0.49546 -0.66438,0.87457 -1.04723,1.13732 -0.38287,0.25524 -0.84456,0.45417 -1.38506,0.59681 -0.36785,0.0826 -0.93463,0.12387 -1.70035,0.12387 -0.80326,0 -1.53144,-0.12387 -2.18455,-0.3716 -0.65312,-0.24774 -1.20489,-0.58555 -1.65531,-1.01346 -0.45043,-0.43541 -0.82953,-0.95715 -1.13732,-1.56522 -0.30028,-0.60807 -0.52174,-1.26118 -0.66438,-1.95934 -0.14263,-0.70566 -0.21395,-1.45637 -0.21395,-2.25212 0,-2.85268 0.69065,-4.94715 2.07195,-6.28342 0.99093,-0.8708 2.22584,-1.30621 3.70474,-1.30623 l 0.22521,0 c 2.2446,0.0526 3.83235,1.08854 4.76323,3.10793 l -1.61026,0.77698 c -0.66063,-1.44885 -1.75291,-2.17328 -3.27684,-2.1733 -0.54802,2e-5 -1.00219,0.0526 -1.36253,0.15765 -0.36034,0.0976 -0.7432,0.31907 -1.14858,0.66438 -1.02847,0.87834 -1.5427,2.60496 -1.5427,5.17987 0,0.77324 0.0638,1.46389 0.19143,2.07195 0.13512,0.60057 0.35283,1.15234 0.65311,1.65531 0.30028,0.50298 0.72819,0.88959 1.28371,1.15984 0.55552,0.27026 1.2274,0.40538 2.01565,0.40538 0.37535,0 0.68689,-0.0338 0.93463,-0.10134 0.37534,-0.0826 0.68689,-0.2102 0.93463,-0.38286 0.24772,-0.17266 0.46918,-0.43541 0.66437,-0.78824 0.19518,-0.35283 0.33781,-0.82953 0.42791,-1.4301 0.0976,-0.60807 0.14637,-1.35877 0.14638,-2.25212 -0.19519,0.015 -0.4692,0.0225 -0.82202,0.0225 -0.12012,1e-5 -0.29278,1e-5 -0.51799,0 -0.21771,-0.007 -0.37911,-0.0112 -0.4842,-0.0113 -0.9459,1e-5 -1.80921,0.14264 -2.58994,0.4279 l -0.45042,-1.63278 c 0.84078,-0.31529 1.97059,-0.47294 3.38943,-0.47295 0.21019,1e-5 0.52174,0.004 0.93463,0.0113 0.42039,0.008 0.73193,0.0113 0.93463,0.0113"
       style="text-align:center;line-height:125%;text-anchor:middle;font-family:Fantasque Sans Mono;-inkscape-font-specification:Fantasque Sans Mono"
       id="path3231" />
  </g>
  <path
     transform="matrix(1.0482592,0,0,1.0482592,220.95437,93.767004)"
     style="fill:#ffffff;fill-opacity:1;stroke:#000000;stroke-opacity:1"
     d="m 41.012193,31.273558 c 0,6.248388 -5.06532,11.313708 -11.313709,11.313708 -6.248388,0 -11.313708,-5.06532 -11.313708,-11.313708 0,-6.248389 5.06532,-11.313709 11.313708,-11.313709 6.248389,0 11.313709,5.06532 11.313709,11.313709 z"
     id="path4507" />
  <g
     style="font-size:23.06170273px;font-style:normal;font-variant:normal;font-weight:normal;font-stretch:normal;line-height:125%;letter-spacing:0px;word-spacing:0px;fill:#000000;fill-opacity:1;stroke:none;font-family:Fantasque Sans Mono;-inkscape-font-specification:Fantasque Sans Mono"
     id="text3576">
    <path
       d="m 249.15902,133.82881 -1.81296,-0.045 0,-14.58247 7.71351,0 c 0.72818,0.03 1.32499,0.16141 1.79044,0.39412 l -0.6306,1.64404 c -0.13513,-0.075 -0.24399,-0.1276 -0.32655,-0.15764 -0.0751,-0.03 -0.22898,-0.0638 -0.46169,-0.10135 -0.22522,-0.0375 -0.51049,-0.0563 -0.8558,-0.0563 l -0.78825,0 c -0.37536,1e-5 -1.93682,0.008 -4.6844,0.0225 l 0,3.69347 c 0.45042,1e-5 1.02846,-0.004 1.73413,-0.0113 0.70566,-0.015 1.28745,-0.0225 1.74539,-0.0225 0.13512,1e-5 0.27025,0.004 0.40538,0.0113 0.13512,0.008 0.25523,0.015 0.36034,0.0225 0.10509,0.008 0.20644,0.0188 0.30404,0.0338 0.0976,0.008 0.18016,0.0188 0.24773,0.0338 0.0751,0.008 0.13512,0.015 0.18017,0.0225 0.0525,0.008 0.0938,0.015 0.12387,0.0225 l 0.045,0.0113 0.20269,0.0563 -0.40538,1.63279 c -0.43542,-0.10509 -0.93464,-0.15764 -1.49766,-0.15765 -1.48641,1e-5 -2.63499,0.0113 -3.44574,0.0338 -1e-5,0.48046 0.007,1.77168 0.0225,3.87365 0.0225,2.09447 0.0338,3.30311 0.0338,3.62591"
       style="text-align:center;line-height:125%;text-anchor:middle;font-family:Fantasque Sans Mono;-inkscape-font-specification:Fantasque Sans Mono"
       id="path3235" />
  </g>
  <path
     transform="matrix(1.0482592,0,0,1.0482592,162.15005,93.767004)"
     style="fill:#ffffff;fill-opacity:1;stroke:#000000;stroke-opacity:1"
     d="m 41.012193,31.273558 c 0,6.248388 -5.06532,11.313708 -11.313709,11.313708 -6.248388,0 -11.313708,-5.06532 -11.313708,-11.313708 0,-6.248389 5.06532,-11.313709 11.313708,-11.313709 6.248389,0 11.313709,5.06532 11.313709,11.313709 z"
     id="path4509" />
  <g
     style="font-size:23.06170273px;font-style:normal;font-variant:normal;font-weight:normal;font-stretch:normal;line-height:125%;letter-spacing:0px;word-spacing:0px;fill:#000000;fill-opacity:1;stroke:none;font-family:Fantasque Sans Mono;-inkscape-font-specification:Fantasque Sans Mono"
     id="text3580">
    <path
       d="m 190.67663,120.84534 -0.33782,0 c -0.25524,2e-5 -0.42415,0.008 -0.50672,0.0225 0.007,0.18769 0.0113,0.5105 0.0113,0.96842 -10e-6,0.22522 -0.004,0.58931 -0.0113,1.09227 -1e-5,0.49548 -1e-5,0.87459 0,1.13732 -1e-5,2.5374 -0.015,5.24745 -0.0451,8.13015 0.66062,0.0225 1.38505,0.0338 2.1733,0.0338 0.52549,0 0.97216,-0.0263 1.34001,-0.0788 0.37535,-0.0525 0.74319,-0.15764 1.10354,-0.31529 0.36784,-0.15765 0.68313,-0.39412 0.94589,-0.70942 0.26274,-0.3153 0.4842,-0.71692 0.66437,-1.20489 0.0901,-0.24022 0.1614,-0.57053 0.21395,-0.99093 0.06,-0.42039 0.0901,-0.79199 0.0901,-1.1148 -10e-6,-0.91585 -0.10136,-1.80169 -0.30404,-2.6575 -0.19519,-0.8633 -0.47295,-1.5577 -0.83328,-2.08321 -0.36035,-0.51798 -0.71693,-0.92711 -1.06976,-1.2274 -0.35284,-0.30778 -0.81452,-0.55176 -1.38505,-0.73194 -0.56304,-0.18016 -1.24618,-0.27024 -2.04943,-0.27026 m -2.69128,11.56464 c 0,-0.11261 0.004,-0.64186 0.0113,-1.58775 0.015,-0.94588 0.0263,-2.07945 0.0338,-3.4007 0.015,-1.32874 0.0225,-2.5111 0.0225,-3.54709 l 0,-0.83328 c 0,-1.57647 -0.0488,-2.83015 -0.14639,-3.76104 0.99093,-0.0976 1.83548,-0.14637 2.53364,-0.14639 1.50891,2e-5 2.74007,0.23274 3.69347,0.69816 0.9609,0.45794 1.79418,1.19739 2.49986,2.21834 0.47293,0.69066 0.83702,1.50893 1.09227,2.45481 0.25523,0.93839 0.38285,1.91055 0.38286,2.91649 -1e-5,0.71318 -0.0788,1.46388 -0.23647,2.25212 -0.25525,1.2687 -0.78074,2.25963 -1.57648,2.9728 -0.79576,0.70566 -1.73039,1.10729 -2.80389,1.20488 -0.57805,0.0525 -1.18237,0.0788 -1.81296,0.0788 -0.28527,0 -0.86331,-0.015 -1.73413,-0.0451 -0.87082,-0.0225 -1.53519,-0.0338 -1.99312,-0.0338 -1e-5,-0.24022 0.0113,-0.72068 0.0338,-1.44135"
       style="text-align:center;line-height:125%;text-anchor:middle;font-family:Fantasque Sans Mono;-inkscape-font-specification:Fantasque Sans Mono"
       id="path3239" />
  </g>
  <path
     transform="matrix(1.0482592,0,0,1.0482592,103.3457,93.767004)"
     style="fill:#ffffff;fill-opacity:1;stroke:#000000;stroke-opacity:1"
     d="m 41.012193,31.273558 c 0,6.248388 -5.06532,11.313708 -11.313709,11.313708 -6.248388,0 -11.313708,-5.06532 -11.313708,-11.313708 0,-6.248389 5.06532,-11.313709 11.313708,-11.313709 6.248389,0 11.313709,5.06532 11.313709,11.313709 z"
     id="path4511" />
  <g
     style="font-size:23.06170273px;font-style:normal;font-variant:normal;font-weight:normal;font-stretch:normal;line-height:125%;letter-spacing:0px;word-spacing:0px;fill:#000000;fill-opacity:1;stroke:none;font-family:Fantasque Sans Mono;-inkscape-font-specification:Fantasque Sans Mono"
     id="text3584">
    <path
       d="m 131.13576,125.83379 c -0.57054,-0.27025 -1.04348,-0.67188 -1.41883,-1.20489 -0.36785,-0.53299 -0.55177,-1.18235 -0.55177,-1.94808 0,-1.14857 0.4279,-2.02314 1.2837,-2.62372 0.85581,-0.60055 1.92181,-0.90083 3.19801,-0.90085 l 0.10135,0 c 2.84517,0.0375 4.46294,1.11106 4.85332,3.22053 l -1.79044,0.32656 c -0.2027,-0.69064 -0.54427,-1.16358 -1.02471,-1.41883 -0.48046,-0.26274 -1.17486,-0.39411 -2.08321,-0.39412 -1.06601,1e-5 -1.8505,0.24774 -2.35347,0.74319 -0.26275,0.27027 -0.39412,0.60058 -0.39412,0.99094 0,0.42791 0.10134,0.76948 0.30404,1.02471 0.20269,0.24774 0.4842,0.45794 0.84454,0.63059 0.30028,0.14265 1.00594,0.33408 2.11699,0.5743 1.11104,0.24023 1.92931,0.48046 2.45481,0.72067 0.66812,0.32282 1.2274,0.82203 1.67783,1.49766 0.45792,0.66814 0.68689,1.46013 0.6869,2.37599 -10e-6,0.73569 -0.12388,1.39256 -0.3716,1.9706 -0.24774,0.57805 -0.59307,1.04724 -1.03597,1.40758 -0.43542,0.36034 -0.94215,0.63435 -1.52019,0.82202 -0.57805,0.18017 -1.20864,0.27026 -1.89178,0.27026 l -0.21395,0 c -0.96091,-0.0225 -1.78668,-0.16141 -2.47733,-0.41665 -0.69065,-0.26274 -1.22741,-0.61557 -1.61026,-1.05849 -0.37536,-0.45042 -0.64937,-0.94214 -0.82203,-1.47514 -0.17266,-0.54051 -0.25899,-1.14107 -0.25899,-1.8017 l 1.77917,0 c 0,0.9534 0.27401,1.70036 0.82203,2.24086 0.55552,0.54051 1.43384,0.81077 2.63498,0.81077 2.10947,0 3.16422,-0.89334 3.16422,-2.68003 0,-0.57804 -0.14264,-1.06224 -0.4279,-1.45261 -0.27777,-0.39787 -0.65312,-0.69815 -1.12606,-0.90085 -0.40539,-0.17266 -1.13357,-0.3791 -2.18455,-0.61933 -1.051,-0.24773 -1.83924,-0.49171 -2.36473,-0.73194"
       style="text-align:center;line-height:125%;text-anchor:middle;font-family:Fantasque Sans Mono;-inkscape-font-specification:Fantasque Sans Mono"
       id="path3243" />
  </g>
  <path
     transform="matrix(1.0482592,0,0,1.0482592,44.541359,93.767004)"
     style="fill:#ffffff;fill-opacity:1;stroke:#000000;stroke-opacity:1"
     d="m 41.012193,31.273558 c 0,6.248388 -5.06532,11.313708 -11.313709,11.313708 -6.248388,0 -11.313708,-5.06532 -11.313708,-11.313708 0,-6.248389 5.06532,-11.313709 11.313708,-11.313709 6.248389,0 11.313709,5.06532 11.313709,11.313709 z"
     id="path4513" />
  <g
     style="font-size:23.06170273px;font-style:normal;font-variant:normal;font-weight:normal;font-stretch:normal;line-height:125%;letter-spacing:0px;word-spacing:0px;fill:#000000;fill-opacity:1;stroke:none;font-family:Fantasque Sans Mono;-inkscape-font-specification:Fantasque Sans Mono"
     id="text3588">
    <path
       d="m 77.596812,128.24356 -2.184555,-6.60998 -2.094471,6.83519 c 0.330306,-0.0751 1.077259,-0.13888 2.240858,-0.19143 l 2.038168,-0.0338 m -3.198009,-9.07605 1.925562,0 4.256506,12.71322 c 0.210186,0.71317 0.326546,1.35878 0.349078,1.93682 l -1.846738,0 c -9e-6,-0.12762 -0.02628,-0.34908 -0.07882,-0.66437 -0.05256,-0.32281 -0.101355,-0.55928 -0.146388,-0.70942 l -0.788241,-2.36473 c -0.07508,1e-5 -0.259002,0.004 -0.55177,0.0113 -0.292783,0.008 -0.502981,0.015 -0.630593,0.0225 -0.12012,1e-5 -0.326564,0.004 -0.619333,0.0113 -0.285275,0.008 -0.510487,0.015 -0.675636,0.0225 -0.157654,0.008 -0.367852,0.0188 -0.630593,0.0338 -0.255246,0.008 -0.47295,0.0225 -0.653115,0.045 -0.172667,0.015 -0.360343,0.0338 -0.56303,0.0563 -0.202694,0.015 -0.386617,0.0375 -0.551769,0.0676 -0.165159,0.03 -0.3153,0.0601 -0.450424,0.0901 l -0.664375,2.01565 c -0.180172,0.52549 -0.270257,0.97967 -0.270254,1.36253 l -1.824217,0 c 0.0075,-0.15765 0.04879,-0.43166 0.123866,-0.82202 0.08258,-0.39788 0.161402,-0.72068 0.236473,-0.96841 l 4.053815,-12.85961"
       style="text-align:center;line-height:125%;text-anchor:middle;font-family:Fantasque Sans Mono;-inkscape-font-specification:Fantasque Sans Mono"
       id="path3247" />
  </g>
  <g
     style="font-size:23.06170273px;font-style:normal;font-variant:normal;font-weight:normal;font-stretch:normal;line-height:125%;letter-spacing:0px;word-spacing:0px;fill:#000000;fill-opacity:1;stroke:none;font-family:Fantasque Sans Mono;-inkscape-font-specification:Fantasque Sans Mono"
     id="text3600">
    <path
       d="m 452.58353,170.10942 1.74539,0.0113 c 0.26274,0.80327 0.51798,1.48641 0.76572,2.04943 0.25524,0.56304 0.58555,1.20489 0.99093,1.92556 0.41289,0.74321 0.76947,1.41509 1.06976,2.01565 0.06,-0.1126 0.25523,-0.47669 0.58555,-1.09228 0.3303,-0.61557 0.57053,-1.06599 0.72068,-1.35127 0.15013,-0.28526 0.35282,-0.67938 0.60807,-1.18236 0.26274,-0.51047 0.47669,-0.95339 0.64185,-1.32875 0.17266,-0.38285 0.31529,-0.72818 0.42791,-1.03598 l 1.76791,0 0.0113,14.59373 -1.76791,0 -0.0225,-10.41605 c -0.2027,0.39038 -0.50298,0.94215 -0.90085,1.65531 -0.39038,0.71318 -0.70943,1.30248 -0.95715,1.76791 -0.24023,0.45794 -0.37911,0.74696 -0.41664,0.86707 l -1.3738,-0.0338 c -0.0225,-0.0525 -0.1051,-0.21019 -0.24773,-0.47295 -0.13513,-0.26274 -0.34908,-0.66812 -0.64185,-1.21614 -0.28528,-0.55552 -0.56679,-1.09978 -0.84455,-1.63279 -0.16516,-0.35282 -0.28152,-0.58929 -0.34908,-0.70942 l 0,10.19084 -1.77917,0 -0.0338,-14.60499"
       style="text-align:center;line-height:125%;text-anchor:middle;font-family:Fantasque Sans Mono;-inkscape-font-specification:Fantasque Sans Mono"
       id="path3250" />
  </g>
  <path
     transform="matrix(1.0482592,0,0,1.0482592,368.02698,144.72665)"
     style="fill:#ffffff;fill-opacity:1;stroke:#000000;stroke-opacity:1"
     d="m 41.012193,31.273558 c 0,6.248388 -5.06532,11.313708 -11.313709,11.313708 -6.248388,0 -11.313708,-5.06532 -11.313708,-11.313708 0,-6.248389 5.06532,-11.313709 11.313708,-11.313709 6.248389,0 11.313709,5.06532 11.313709,11.313709 z"
     id="path4517" />
  <g
     style="font-size:23.06170273px;font-style:normal;font-variant:normal;font-weight:normal;font-stretch:normal;line-height:125%;letter-spacing:0px;word-spacing:0px;fill:#000000;fill-opacity:1;stroke:none;font-family:Fantasque Sans Mono;-inkscape-font-specification:Fantasque Sans Mono"
     id="text3604">
    <path
       d="m 401.54444,184.72568 c -1.6966,-3.716 -3.64469,-7.4958 -5.84425,-11.33943 l 0,2.29717 c 0,1.23116 0,2.93151 0,5.10105 0.007,2.16954 0.0113,3.47201 0.0113,3.90742 l -1.79044,0 0,-14.65003 1.79044,0.045 c 0.68314,0.99845 1.6553,2.6425 2.91649,4.93214 1.26869,2.28966 2.24461,4.16267 2.92776,5.61904 -0.0225,-1.46387 -0.0338,-2.96529 -0.0338,-4.50424 -1e-5,-2.34219 0.045,-4.3691 0.13512,-6.08072 l 1.73414,0 c -0.0601,1.13358 -0.0901,2.72883 -0.0901,4.78575 -10e-6,0.8408 0.007,2.1658 0.0225,3.97499 0.015,1.80921 0.0225,3.14922 0.0225,4.02003 -1e-5,0.21771 -0.004,0.53676 -0.0113,0.95716 -1e-5,0.42039 -1e-5,0.72818 0,0.92336 l -1.79043,0.0113"
       style="text-align:center;line-height:125%;text-anchor:middle;font-family:Fantasque Sans Mono;-inkscape-font-specification:Fantasque Sans Mono"
       id="path3254" />
  </g>
  <path
     transform="matrix(1.0482592,0,0,1.0482592,309.22266,144.72665)"
     style="fill:#ffffff;fill-opacity:1;stroke:#000000;stroke-opacity:1"
     d="m 41.012193,31.273558 c 0,6.248388 -5.06532,11.313708 -11.313709,11.313708 -6.248388,0 -11.313708,-5.06532 -11.313708,-11.313708 0,-6.248389 5.06532,-11.313709 11.313708,-11.313709 6.248389,0 11.313709,5.06532 11.313709,11.313709 z"
     id="path4519" />
  <g
     style="font-size:23.06170273px;font-style:normal;font-variant:normal;font-weight:normal;font-stretch:normal;line-height:125%;letter-spacing:0px;word-spacing:0px;fill:#000000;fill-opacity:1;stroke:none;font-family:Fantasque Sans Mono;-inkscape-font-specification:Fantasque Sans Mono"
     id="text3608">
    <path
       d="m 335.32604,175.39064 c -10e-6,-2.19956 -0.0451,-3.93369 -0.13513,-5.2024 0.12762,-0.007 0.3791,-0.0263 0.75446,-0.0563 0.37535,-0.0375 0.70191,-0.0638 0.97967,-0.0788 0.28527,-0.015 0.61933,-0.0225 1.00219,-0.0225 l 0.20269,0 c 0.60807,1e-5 1.1711,0.0638 1.68909,0.19143 0.52549,0.12012 1.00219,0.3078 1.4301,0.56303 0.4354,0.25525 0.77697,0.60433 1.02471,1.04723 0.25524,0.44293 0.38286,0.95716 0.38286,1.5427 0,1.17112 -0.32281,2.05319 -0.96841,2.64624 0.92336,0.3078 1.67782,0.8333 2.26338,1.57649 0.59305,0.7357 0.88958,1.61402 0.88959,2.63498 -1e-5,1.21614 -0.34534,2.22209 -1.03598,3.01784 -0.69065,0.79575 -1.53144,1.25368 -2.52237,1.37379 -0.46544,0.0601 -0.91211,0.0901 -1.34001,0.0901 -0.30029,0 -0.79951,-0.015 -1.49766,-0.045 -0.69816,-0.03 -1.26119,-0.045 -1.68909,-0.045 l -1.53144,0 c 0,-0.51799 0.015,-1.74164 0.045,-3.67095 0.0375,-1.93682 0.0563,-3.79107 0.0563,-5.56274 m 5.56273,-1.90304 c -1e-5,-0.60806 -0.23648,-1.05473 -0.70942,-1.34001 -0.46544,-0.29276 -1.10729,-0.43915 -1.92556,-0.43917 l -0.19143,0 c -0.26275,2e-5 -0.5818,0.0188 -0.95715,0.0563 0.03,0.36786 0.045,0.84831 0.045,1.44135 0,0.24775 -0.004,0.64187 -0.0113,1.18237 -0.008,0.53301 -0.0113,0.94214 -0.0113,1.2274 0.12762,1e-5 0.33782,1e-5 0.63059,0 0.29278,-0.007 0.48045,-0.0112 0.56303,-0.0113 0.0826,-0.007 0.22521,-0.0188 0.42791,-0.0338 0.20268,-0.015 0.34532,-0.0338 0.4279,-0.0563 0.0901,-0.0225 0.21019,-0.0525 0.36034,-0.0901 0.15013,-0.045 0.28526,-0.0976 0.40538,-0.15765 0.12761,-0.06 0.26274,-0.13511 0.40538,-0.22521 0.15014,-0.0901 0.27776,-0.274 0.38286,-0.55177 0.10509,-0.27775 0.15764,-0.58178 0.15765,-0.91211 l 0,-0.0901 m 1.31749,4.66189 c -0.39037,-0.3228 -0.77323,-0.53675 -1.14858,-0.64186 -0.36785,-0.10509 -0.84455,-0.15764 -1.4301,-0.15765 -0.15765,1e-5 -0.46169,0.004 -0.91211,0.0113 -0.45042,0.008 -0.82202,0.0113 -1.11479,0.0113 l -0.49547,0 c -0.008,0.69816 -0.015,1.48265 -0.0225,2.35346 0,0.86332 -0.004,1.55397 -0.0113,2.07195 -0.008,0.51048 -0.0113,0.88959 -0.0113,1.13732 0.4354,0 0.90084,0.015 1.39631,0.045 0.49546,0.0225 0.86706,0.0338 1.1148,0.0338 0.45793,1e-5 0.87081,-0.0263 1.23867,-0.0788 0.62308,-0.0751 1.15232,-0.3791 1.58774,-0.91211 0.4354,-0.533 0.65311,-1.18986 0.65311,-1.9706 0,-0.43541 -0.0676,-0.7995 -0.20269,-1.09228 -0.12762,-0.29277 -0.34158,-0.56302 -0.64185,-0.81076"
       style="text-align:center;line-height:125%;text-anchor:middle;font-family:Fantasque Sans Mono;-inkscape-font-specification:Fantasque Sans Mono"
       id="path3258" />
  </g>
  <path
     transform="matrix(1.0482592,0,0,1.0482592,250.41832,144.72665)"
     style="fill:#ffffff;fill-opacity:1;stroke:#000000;stroke-opacity:1"
     d="m 41.012193,31.273558 c 0,6.248388 -5.06532,11.313708 -11.313709,11.313708 -6.248388,0 -11.313708,-5.06532 -11.313708,-11.313708 0,-6.248389 5.06532,-11.313709 11.313708,-11.313709 6.248389,0 11.313709,5.06532 11.313709,11.313709 z"
     id="path4521" />
  <g
     style="font-size:23.06170273px;font-style:normal;font-variant:normal;font-weight:normal;font-stretch:normal;line-height:125%;letter-spacing:0px;word-spacing:0px;fill:#000000;fill-opacity:1;stroke:none;font-family:Fantasque Sans Mono;-inkscape-font-specification:Fantasque Sans Mono"
     id="text3612">
    <path
       d="m 280.0417,184.71441 c -0.12762,-1.01345 -0.77323,-3.34064 -1.93682,-6.98157 -1.1636,-3.64842 -2.03817,-6.16704 -2.62372,-7.55586 l 1.71161,-0.59681 c 0.60807,1.52395 1.25368,3.31814 1.93682,5.38257 0.69065,2.05694 1.29872,4.06883 1.82422,6.03568 0.66062,-2.80764 1.94808,-6.56117 3.86239,-11.2606 l 1.70035,0.59681 c -0.68316,1.60653 -1.61028,4.15142 -2.78137,7.63469 -1.1636,3.47577 -1.79044,5.72038 -1.88052,6.73383 l -1.81296,0.0113"
       style="text-align:center;line-height:125%;text-anchor:middle;font-family:Fantasque Sans Mono;-inkscape-font-specification:Fantasque Sans Mono"
       id="path3262" />
  </g>
  <path
     transform="matrix(1.0482592,0,0,1.0482592,191.61399,144.72665)"
     style="fill:#ffffff;fill-opacity:1;stroke:#000000;stroke-opacity:1"
     d="m 41.012193,31.273558 c 0,6.248388 -5.06532,11.313708 -11.313709,11.313708 -6.248388,0 -11.313708,-5.06532 -11.313708,-11.313708 0,-6.248389 5.06532,-11.313709 11.313708,-11.313709 6.248389,0 11.313709,5.06532 11.313709,11.313709 z"
     id="path4523" />
  <g
     style="font-size:23.06170273px;font-style:normal;font-variant:normal;font-weight:normal;font-stretch:normal;line-height:125%;letter-spacing:0px;word-spacing:0px;fill:#000000;fill-opacity:1;stroke:none;font-family:Fantasque Sans Mono;-inkscape-font-specification:Fantasque Sans Mono"
     id="text3616">
    <path
       d="m 222.95564,171.6859 c -0.60057,2e-5 -1.14858,0.14265 -1.64404,0.42791 -0.49547,0.28528 -0.89335,0.63811 -1.19363,1.05849 -0.76572,1.10355 -1.14858,2.5862 -1.14858,4.44794 0,2.10949 0.4842,3.61465 1.45262,4.5155 0.33781,0.3153 0.66437,0.533 0.97967,0.65311 0.31529,0.11261 0.70941,0.16891 1.18236,0.16891 l 0.15765,0 c 1.50141,-0.0525 2.56741,-0.76947 3.19801,-2.15077 l 1.56522,0.8558 c -0.44292,0.92337 -1.04724,1.65907 -1.81295,2.20708 -0.75822,0.54802 -1.64781,0.82202 -2.66876,0.82202 l -0.0338,0 c -1.62903,0 -2.89397,-0.43916 -3.79482,-1.31749 -1.34376,-1.36628 -2.01564,-3.27683 -2.01564,-5.73164 0,-2.19205 0.49922,-4.01627 1.49766,-5.47265 0.4354,-0.64559 1.02846,-1.17484 1.77917,-1.58774 0.75821,-0.42039 1.60275,-0.63058 2.53363,-0.6306 0.79575,2e-5 1.53894,0.23649 2.2296,0.70942 0.69815,0.46545 1.29121,1.14109 1.77918,2.02691 l -1.53144,0.91211 c -0.64562,-1.27619 -1.48266,-1.91429 -2.51112,-1.91431"
       style="text-align:center;line-height:125%;text-anchor:middle;font-family:Fantasque Sans Mono;-inkscape-font-specification:Fantasque Sans Mono"
       id="path3266" />
  </g>
  <path
     transform="matrix(1.0482592,0,0,1.0482592,132.80965,144.72665)"
     style="fill:#ffffff;fill-opacity:1;stroke:#000000;stroke-opacity:1"
     d="m 41.012193,31.273558 c 0,6.248388 -5.06532,11.313708 -11.313709,11.313708 -6.248388,0 -11.313708,-5.06532 -11.313708,-11.313708 0,-6.248389 5.06532,-11.313709 11.313708,-11.313709 6.248389,0 11.313709,5.06532 11.313709,11.313709 z"
     id="path4525" />
  <g
     style="font-size:23.06170273px;font-style:normal;font-variant:normal;font-weight:normal;font-stretch:normal;line-height:125%;letter-spacing:0px;word-spacing:0px;fill:#000000;fill-opacity:1;stroke:none;font-family:Fantasque Sans Mono;-inkscape-font-specification:Fantasque Sans Mono"
     id="text3620">
    <path
       d="m 166.64658,169.56891 1.50892,0.95715 -4.05381,6.73384 c 0.24772,0.39037 0.59305,0.93839 1.03597,1.64405 0.44291,0.70567 0.76947,1.22365 0.97967,1.55396 0.2177,0.32281 0.48795,0.72068 0.81076,1.19362 0.3228,0.46544 0.62308,0.86332 0.90085,1.19363 0.28526,0.33031 0.58179,0.6456 0.88959,0.94589 l -1.1711,1.27244 c -0.17267,-0.16515 -0.34158,-0.33406 -0.50673,-0.50672 -0.16516,-0.18017 -0.3153,-0.34157 -0.45042,-0.48421 -0.12763,-0.15014 -0.27777,-0.33782 -0.45043,-0.56303 -0.17267,-0.22521 -0.30779,-0.39787 -0.40538,-0.51799 -0.0976,-0.12011 -0.24023,-0.31905 -0.4279,-0.59681 -0.18769,-0.28526 -0.31906,-0.48045 -0.39412,-0.58555 -0.0751,-0.1126 -0.22147,-0.33781 -0.43917,-0.67564 -0.21771,-0.33781 -0.36034,-0.55551 -0.4279,-0.65311 -0.0601,-0.10509 -0.21771,-0.36033 -0.47294,-0.76572 -0.25525,-0.40538 -0.41665,-0.66437 -0.48421,-0.77698 l -3.58087,6.06946 -1.4864,-0.95715 3.96373,-6.75636 c -0.26275,-0.44291 -0.66438,-1.17109 -1.20488,-2.18455 -0.54051,-1.02095 -1.02847,-1.87676 -1.46388,-2.56742 -0.4279,-0.69064 -0.87833,-1.29871 -1.35127,-1.82422 l 1.40757,-1.04723 c 0.43541,0.48797 0.85956,1.06601 1.27245,1.73413 0.41289,0.66063 0.85956,1.44137 1.34001,2.3422 0.48045,0.89335 0.83704,1.53145 1.06976,1.9143 l 3.59213,-6.09198"
       style="text-align:center;line-height:125%;text-anchor:middle;font-family:Fantasque Sans Mono;-inkscape-font-specification:Fantasque Sans Mono"
       id="path3270" />
  </g>
  <path
     transform="matrix(1.0482592,0,0,1.0482592,74.0053,144.72665)"
     style="fill:#ffffff;fill-opacity:1;stroke:#000000;stroke-opacity:1"
     d="m 41.012193,31.273558 c 0,6.248388 -5.06532,11.313708 -11.313709,11.313708 -6.248388,0 -11.313708,-5.06532 -11.313708,-11.313708 0,-6.248389 5.06532,-11.313709 11.313708,-11.313709 6.248389,0 11.313709,5.06532 11.313709,11.313709 z"
     id="path4527" />
  <g
     style="font-size:23.06170273px;font-style:normal;font-variant:normal;font-weight:normal;font-stretch:normal;line-height:125%;letter-spacing:0px;word-spacing:0px;fill:#000000;fill-opacity:1;stroke:none;font-family:Fantasque Sans Mono;-inkscape-font-specification:Fantasque Sans Mono"
     id="text3624">
    <path
       d="m 100.24801,184.71441 -1.069752,-0.99093 8.186452,-12.01506 c -0.89335,2e-5 -2.28215,0.0113 -4.16642,0.0338 -1.88427,0.015 -2.99532,0.0225 -3.333136,0.0225 l -0.01126,-1.72287 c 0.390366,10e-6 1.666566,-0.008 3.828606,-0.0225 2.16202,-0.015 3.6259,-0.0225 4.39163,-0.0225 0.19517,2e-5 0.3866,0.008 0.57429,0.0225 0.18767,0.015 0.33405,0.0338 0.43916,0.0563 0.1126,0.015 0.22896,0.0376 0.34908,0.0676 0.1201,0.0225 0.19142,0.0338 0.21395,0.0338 -0.0451,0.52551 -0.11261,1.03975 -0.20269,1.54271 l -7.62342,11.23807 5.48391,0.0113 c 0.47294,0 0.82952,-0.015 1.06976,-0.045 0.24772,-0.0375 0.55551,-0.11636 0.92336,-0.23647 l 0.45043,1.66657 c -0.63061,0.22521 -1.22366,0.33781 -1.77918,0.33781 l -2.73632,0 c -0.9459,0 -1.99313,0.004 -3.14171,0.0113 -1.14858,0.008 -1.73788,0.0113 -1.76791,0.0113 l -0.0788,0"
       style="text-align:center;line-height:125%;text-anchor:middle;font-family:Fantasque Sans Mono;-inkscape-font-specification:Fantasque Sans Mono"
       id="path3274" />
  </g>
</svg>
